<svg width="13" height="17" xmlns="http://www.w3.org/2000/svg"><path d="M11.142 0H1.857A1.862 1.862 0 0 0 0 1.857v13.001c0 1.021.835 1.857 1.857 1.857h9.286A1.862 1.862 0 0 0 13 14.858V1.857A1.862 1.862 0 0 0 11.142 0zM4.336 14.063a.463.463 0 0 1-.463.463H2.606a.462.462 0 0 1-.463-.463v-.858c0-.257.207-.462.463-.462h1.267a.46.46 0 0 1 .463.462v.858zm0-2.857a.464.464 0 0 1-.463.463H2.606a.464.464 0 0 1-.463-.463v-.858c0-.256.207-.462.463-.462h1.267c.257 0 .463.206.463.462v.858zm0-2.856a.461.461 0 0 1-.463.462H2.606a.462.462 0 0 1-.463-.462v-.86c0-.256.207-.462.463-.462h1.267c.257 0 .463.207.463.462v.86zm3.26 5.713a.461.461 0 0 1-.462.462H5.866a.461.461 0 0 1-.462-.462v-.858a.46.46 0 0 1 .462-.462h1.268a.46.46 0 0 1 .462.462v.858zm0-2.857a.464.464 0 0 1-.462.463H5.866a.464.464 0 0 1-.462-.463v-.858c0-.256.207-.462.462-.462h1.268a.46.46 0 0 1 .462.462v.858zm0-2.856a.462.462 0 0 1-.462.462H5.866a.462.462 0 0 1-.462-.462v-.86c0-.256.207-.462.462-.462h1.268c.256 0 .462.207.462.462v.86zm3.186 5.688a.43.43 0 0 1-.43.431H9.17a.432.432 0 0 1-.432-.43v-3.667a.43.43 0 0 1 .432-.43h1.18a.43.43 0 0 1 .431.43v3.666zm.076-5.688a.461.461 0 0 1-.462.462H9.127a.462.462 0 0 1-.462-.462v-.86c0-.256.208-.462.462-.462h1.269c.256 0 .462.207.462.462v.86zm.284-3.986a.745.745 0 0 1-.743.743H2.6a.744.744 0 0 1-.743-.743V3.065c0-.409.335-.743.743-.743h7.8c.408 0 .743.334.743.743v1.299z" fill="#FFF" fill-rule="evenodd"/></svg>