<svg id="Layer_1" data-name="Layer 1" xmlns="http://www.w3.org/2000/svg" viewBox="0 0 83.64 83.64"><defs><style>.cls-1{fill:none;stroke:#ed1c24;stroke-miterlimit:10;stroke-width:3px}</style><clipPath id="clip-path"><rect class="cls-1" x="-95.17" y="1.5" width="80.64" height="80.64" rx="6.34" ry="6.34"/></clipPath><clipPath id="clip-path-2"><path d="M-31.19 42.67h-16.75v-8.09h16.75zm-9.7 11.24h-16.75v-8.09h16.75zm-9.26 11.23H-66.9v-8.09h16.75zM-70 53.94v11.2h-5.27V20.65h34.82v10.9H-51v11.19h-9.5v11.2zm48.06-22.42h-15.73v-14h-40.69v50.77h31.24V57.06h9.45V45.83h9.46V34.61h6.27z" clip-rule="evenodd" fill="none"/></clipPath><clipPath id="clip-path-3"><rect class="cls-1" x="1.5" y="1.5" width="80.64" height="80.64" rx="6.34" ry="6.34"/></clipPath><clipPath id="clip-path-4"><path class="cls-1" d="M-142.51-131.56h368.66v618.07h-368.66z"/></clipPath><clipPath id="clip-path-5"><rect class="cls-1" x="99.5" y="1.5" width="80.64" height="80.64" rx="6.34" ry="6.34"/></clipPath><clipPath id="clip-path-6"><rect class="cls-1" x="194.17" y="2.35" width="80.64" height="80.64" rx="6.34" ry="6.34"/></clipPath></defs><g clip-path="url(#clip-path)"><path class="cls-1" d="M-239.17-131.56h368.66v618.07h-368.66z"/></g><rect class="cls-1" x="-95.17" y="1.5" width="80.64" height="80.64" rx="6.34" ry="6.34"/><g clip-path="url(#clip-path-3)"><g clip-path="url(#clip-path-4)"><rect class="cls-1" x="1.5" y="1.5" width="80.64" height="80.64" rx="6.34" ry="6.34"/></g><path class="cls-1" d="M-142.51-131.56h368.66v618.07h-368.66z"/></g><rect class="cls-1" x="1.5" y="1.5" width="80.64" height="80.64" rx="6.34" ry="6.34"/><path class="cls-1" d="M17.76 18.7h48.31v40.63H17.76z"/><path class="cls-1" d="M66.08 37.41H25.2v30.1h-7.44v7.01M35.6 37.57v21.76M45.82 37.57v21.76M56.04 37.57v21.76"/><g clip-path="url(#clip-path-5)"><path class="cls-1" d="M-44.51-131.56h368.66v618.07H-44.51z"/></g><rect class="cls-1" x="99.5" y="1.5" width="80.64" height="80.64" rx="6.34" ry="6.34"/><g clip-path="url(#clip-path-6)"><path class="cls-1" d="M50.16-130.71h368.66v618.07H50.16z"/></g><rect class="cls-1" x="194.17" y="2.35" width="80.64" height="80.64" rx="6.34" ry="6.34"/></svg>