<svg id="Layer_1" data-name="Layer 1" xmlns="http://www.w3.org/2000/svg" xmlns:xlink="http://www.w3.org/1999/xlink" viewBox="0 0 83.64 83.64"><defs><style>.cls-1{fill:none;stroke:#ed1c24;stroke-miterlimit:10;stroke-width:3px;}.cls-2{clip-path:url(#clip-path);}.cls-3{clip-path:url(#clip-path-2);}.cls-4{clip-path:url(#clip-path-3);}.cls-5{clip-path:url(#clip-path-4);}</style><clipPath id="clip-path"><rect class="cls-1" x="-191.17" y="0.65" width="80.64" height="80.64" rx="6.34" ry="6.34"/></clipPath><clipPath id="clip-path-2"><rect class="cls-1" x="-93.17" y="0.65" width="80.64" height="80.64" rx="6.34" ry="6.34"/></clipPath><clipPath id="clip-path-3"><rect class="cls-1" x="1.5" y="1.5" width="80.64" height="80.64" rx="6.34" ry="6.34"/></clipPath><clipPath id="clip-path-4"><rect class="cls-1" x="-142.51" y="-131.56" width="368.66" height="618.07"/></clipPath></defs><title>flyover</title><g class="cls-2"><rect class="cls-1" x="-335.17" y="-132.41" width="368.66" height="618.07"/></g><rect class="cls-1" x="-191.17" y="0.65" width="80.64" height="80.64" rx="6.34" ry="6.34"/><g class="cls-3"><rect class="cls-1" x="-237.17" y="-132.41" width="368.66" height="618.07"/></g><rect class="cls-1" x="-93.17" y="0.65" width="80.64" height="80.64" rx="6.34" ry="6.34"/><g class="cls-4"><g class="cls-5"><rect class="cls-1" x="1.5" y="1.5" width="80.64" height="80.64" rx="6.34" ry="6.34"/></g><rect class="cls-1" x="-142.51" y="-131.56" width="368.66" height="618.07"/></g><rect class="cls-1" x="1.5" y="1.5" width="80.64" height="80.64" rx="6.34" ry="6.34"/><polyline class="cls-1" points="23.89 26.78 61.48 26.78 61.48 70.5"/><polyline class="cls-1" points="1.83 70.5 28.31 70.5 28.31 34.91"/><line class="cls-1" x1="37.91" y1="40.74" x2="1.5" y2="15.35"/><rect class="cls-1" x="1.83" y="48.64" width="8.42" height="21.86"/></svg>