<svg id="Layer_1" data-name="Layer 1" xmlns="http://www.w3.org/2000/svg" viewBox="0 0 83.64 83.64"><defs><style>.cls-1{fill:none;stroke:#ed1c24;stroke-miterlimit:10;stroke-width:3px}</style><clipPath id="clip-path"><rect class="cls-1" x="-191.17" y=".65" width="80.64" height="80.64" rx="6.34" ry="6.34"/></clipPath><clipPath id="clip-path-2"><rect class="cls-1" x="-93.17" y=".65" width="80.64" height="80.64" rx="6.34" ry="6.34"/></clipPath><clipPath id="clip-path-3"><rect class="cls-1" x="1.5" y="1.5" width="80.64" height="80.64" rx="6.34" ry="6.34"/></clipPath><clipPath id="clip-path-4"><path class="cls-1" d="M-142.51-131.56h368.66v618.07h-368.66z"/></clipPath></defs><g clip-path="url(#clip-path)"><path class="cls-1" d="M-335.17-132.41H33.49v618.07h-368.66z"/></g><rect class="cls-1" x="-191.17" y=".65" width="80.64" height="80.64" rx="6.34" ry="6.34"/><g clip-path="url(#clip-path-2)"><path class="cls-1" d="M-237.17-132.41h368.66v618.07h-368.66z"/></g><rect class="cls-1" x="-93.17" y=".65" width="80.64" height="80.64" rx="6.34" ry="6.34"/><g clip-path="url(#clip-path-3)"><g clip-path="url(#clip-path-4)"><rect class="cls-1" x="1.5" y="1.5" width="80.64" height="80.64" rx="6.34" ry="6.34"/></g><path class="cls-1" d="M-142.51-131.56h368.66v618.07h-368.66z"/></g><rect class="cls-1" x="1.5" y="1.5" width="80.64" height="80.64" rx="6.34" ry="6.34"/><path class="cls-1" d="M23.89 26.78h37.59V70.5M1.83 70.5h26.48V34.91M37.91 40.74L1.5 15.35"/><path class="cls-1" d="M1.83 48.64h8.42V70.5H1.83z"/></svg>