<svg width="35" height="39" xmlns="http://www.w3.org/2000/svg"><path d="M5.727.752c2.127-1.295 4.888-.937 6.595.84.604.627.965 1.377 1.286 2.177.418 1.05 1.646 4.098 1.8 4.52a5.205 5.205 0 0 1-1.807 5.937c-.383.286-.778.554-1.217.68-.489.143-2.876 1.586-1.672 4.465a35.915 35.915 0 0 0 2.434 3.627 36.131 36.131 0 0 0 2.73 3.185c2.532 1.99 4.594.118 4.868-.308.244-.382.614-.683.995-.97a5.339 5.339 0 0 1 6.27-.078c.368.261 2.991 2.27 3.897 2.955.69.524 1.318 1.074 1.76 1.82 1.259 2.113.845 4.838-1 6.502-.5.45-1.07.827-1.61 1.228a8.643 8.643 0 0 1-8.729.94A35.846 35.846 0 0 1 7.695 26.937C3.682 21.669 1.37 15.657.662 9.539.335 6.699 1.803 3.648 4.09 1.944c.538-.402 1.062-.842 1.638-1.192z" fill="#f12337" fill-rule="evenodd"/></svg>