<svg id="Layer_1" data-name="Layer 1" xmlns="http://www.w3.org/2000/svg" xmlns:xlink="http://www.w3.org/1999/xlink" viewBox="0 0 83.64 83.64"><defs><style>.cls-1,.cls-2{fill:none;}.cls-1{stroke:#ed1c24;stroke-miterlimit:10;stroke-width:3px;}.cls-2{clip-rule:evenodd;}.cls-3{clip-path:url(#clip-path);}.cls-4{clip-path:url(#clip-path-2);}.cls-5{clip-path:url(#clip-path-3);}.cls-6{clip-path:url(#clip-path-4);}.cls-7{clip-path:url(#clip-path-5);}.cls-8{clip-path:url(#clip-path-6);}</style><clipPath id="clip-path"><rect class="cls-1" x="-95.17" y="1.5" width="80.64" height="80.64" rx="6.34" ry="6.34"/></clipPath><clipPath id="clip-path-2"><path class="cls-2" d="M-31.19,42.67H-47.94V34.58h16.75Zm-9.7,11.24H-57.64V45.82h16.75Zm-9.26,11.23H-66.9V57.05h16.75ZM-70,53.94v11.2h-5.27V20.65h34.82v10.9H-51V42.74h-9.5v11.2Zm48.06-22.42H-37.67v-14H-78.36V68.29h31.24V57.06h9.45V45.83h9.46V34.61h6.27Z"/></clipPath><clipPath id="clip-path-3"><rect class="cls-1" x="1.5" y="1.5" width="80.64" height="80.64" rx="6.34" ry="6.34"/></clipPath><clipPath id="clip-path-4"><rect class="cls-1" x="-142.51" y="-131.56" width="368.66" height="618.07"/></clipPath><clipPath id="clip-path-5"><rect class="cls-1" x="99.5" y="1.5" width="80.64" height="80.64" rx="6.34" ry="6.34"/></clipPath><clipPath id="clip-path-6"><rect class="cls-1" x="194.17" y="2.35" width="80.64" height="80.64" rx="6.34" ry="6.34"/></clipPath></defs><title>Balustrade</title><g class="cls-3"><rect class="cls-1" x="-239.17" y="-131.56" width="368.66" height="618.07"/></g><rect class="cls-1" x="-95.17" y="1.5" width="80.64" height="80.64" rx="6.34" ry="6.34"/><g class="cls-5"><g class="cls-6"><rect class="cls-1" x="1.5" y="1.5" width="80.64" height="80.64" rx="6.34" ry="6.34"/></g><rect class="cls-1" x="-142.51" y="-131.56" width="368.66" height="618.07"/></g><rect class="cls-1" x="1.5" y="1.5" width="80.64" height="80.64" rx="6.34" ry="6.34"/><rect class="cls-1" x="17.76" y="18.7" width="48.31" height="40.63"/><polyline class="cls-1" points="66.08 37.41 25.2 37.41 25.2 59.33 25.2 67.51 17.76 67.51 17.76 74.52"/><line class="cls-1" x1="35.6" y1="37.57" x2="35.6" y2="59.33"/><line class="cls-1" x1="45.82" y1="37.57" x2="45.82" y2="59.33"/><line class="cls-1" x1="56.04" y1="37.57" x2="56.04" y2="59.33"/><g class="cls-7"><rect class="cls-1" x="-44.51" y="-131.56" width="368.66" height="618.07"/></g><rect class="cls-1" x="99.5" y="1.5" width="80.64" height="80.64" rx="6.34" ry="6.34"/><g class="cls-8"><rect class="cls-1" x="50.16" y="-130.71" width="368.66" height="618.07"/></g><rect class="cls-1" x="194.17" y="2.35" width="80.64" height="80.64" rx="6.34" ry="6.34"/></svg>
