<svg id="Layer_1" data-name="Layer 1" xmlns="http://www.w3.org/2000/svg" xmlns:xlink="http://www.w3.org/1999/xlink" viewBox="0 0 83.64 83.64"><defs><style>.cls-1,.cls-2,.cls-8{fill:none;}.cls-1{stroke:#ed1c24;stroke-miterlimit:10;stroke-width:3px;}.cls-2{clip-rule:evenodd;}.cls-3{clip-path:url(#clip-path);}.cls-4{clip-path:url(#clip-path-2);}.cls-5{clip-path:url(#clip-path-3);}.cls-6{clip-path:url(#clip-path-4);}.cls-7{clip-path:url(#clip-path-5);}.cls-9{fill:#ed1c24;}.cls-10{clip-path:url(#clip-path-6);}</style><clipPath id="clip-path"><rect class="cls-1" x="-193.17" y="1.5" width="80.64" height="80.64" rx="6.34" ry="6.34"/></clipPath><clipPath id="clip-path-2"><path class="cls-2" d="M-129.19,42.67h-16.75V34.58h16.75Zm-9.7,11.24h-16.75V45.82h16.75Zm-9.26,11.23H-164.9V57.05h16.75ZM-168,53.94v11.2h-5.27V20.65h34.82v10.9H-149V42.74h-9.5v11.2Zm48.06-22.42h-15.73v-14h-40.69V68.29h31.24V57.06h9.45V45.83h9.46V34.61h6.27Z"/></clipPath><clipPath id="clip-path-3"><rect class="cls-1" x="-96.5" y="1.5" width="80.64" height="80.64" rx="6.34" ry="6.34"/></clipPath><clipPath id="clip-path-4"><rect class="cls-1" x="1.5" y="1.5" width="80.64" height="80.64" rx="6.34" ry="6.34"/></clipPath><clipPath id="clip-path-5"><rect class="cls-1" x="-142.51" y="-131.56" width="368.66" height="618.07"/></clipPath><clipPath id="clip-path-6"><rect class="cls-1" x="96.17" y="2.35" width="80.64" height="80.64" rx="6.34" ry="6.34"/></clipPath></defs><title>Insulation</title><g class="cls-3"><rect class="cls-1" x="-337.17" y="-131.56" width="368.66" height="618.07"/></g><rect class="cls-1" x="-193.17" y="1.5" width="80.64" height="80.64" rx="6.34" ry="6.34"/><g class="cls-5"><rect class="cls-1" x="-240.51" y="-131.56" width="368.66" height="618.07"/></g><rect class="cls-1" x="-96.5" y="1.5" width="80.64" height="80.64" rx="6.34" ry="6.34"/><g class="cls-6"><g class="cls-7"><rect class="cls-1" x="1.5" y="1.5" width="80.64" height="80.64" rx="6.34" ry="6.34"/></g><rect class="cls-1" x="-142.51" y="-131.56" width="368.66" height="618.07"/></g><rect class="cls-1" x="1.5" y="1.5" width="80.64" height="80.64" rx="6.34" ry="6.34"/><line class="cls-1" x1="36.85" y1="42.72" x2="36.85" y2="82.14"/><path class="cls-8" d="M75.81,1.5H34.9L53.84,20.44h0L73.12,39.72,52.78,60.05,1.5,8.77v67a6.33,6.33,0,0,0,6.34,6.33h68a6.32,6.32,0,0,0,6.33-6.33v-68A6.33,6.33,0,0,0,75.81,1.5Z"/><polygon class="cls-8" points="19.98 23 51.28 54.31 51.28 23 19.98 23"/><polygon class="cls-8" points="68.87 39.72 54.28 25.12 54.28 54.31 68.87 39.72"/><path class="cls-8" d="M15,1.5H7.84A6.32,6.32,0,0,0,2.11,5.14L15,18Z"/><polygon class="cls-8" points="49.16 20 30.66 1.5 18 1.5 18 20 49.16 20"/><path class="cls-9" d="M52.78,20a1.49,1.49,0,0,1,1.06.44L34.9,1.5H30.66L49.16,20Z"/><path class="cls-9" d="M73.12,39.72,53.84,20.44a1.51,1.51,0,0,1,.44,1.06v3.62l14.59,14.6L54.28,54.31v3.62h-3V54.31L20,23H16.5A1.5,1.5,0,0,1,15,21.5V18L2.11,5.14a6.25,6.25,0,0,0-.61,2.7v.93L52.78,60.05Z"/><path class="cls-9" d="M53.84,20.44Z"/><polygon class="cls-9" points="19.98 23 51.28 23 51.28 54.31 52.78 55.81 54.28 54.31 54.28 25.12 49.16 20 18 20 18 1.5 15 1.5 15 18.03 19.98 23"/><path class="cls-9" d="M15,21.5A1.5,1.5,0,0,0,16.5,23H20l-5-5Z"/><path class="cls-9" d="M49.16,20l5.12,5.12V21.5a1.51,1.51,0,0,0-.44-1.06h0A1.49,1.49,0,0,0,52.78,20Z"/><polygon class="cls-9" points="51.28 54.31 51.28 57.93 54.28 57.93 54.28 54.31 52.78 55.81 51.28 54.31"/><g class="cls-10"><rect class="cls-1" x="-47.84" y="-130.71" width="368.66" height="618.07"/></g><rect class="cls-1" x="96.17" y="2.35" width="80.64" height="80.64" rx="6.34" ry="6.34"/></svg>