<svg id="Layer_1" data-name="Layer 1" xmlns="http://www.w3.org/2000/svg" viewBox="0 0 83.64 83.64"><defs><style>.cls-1,.cls-8{fill:none}.cls-1{stroke:#ed1c24;stroke-miterlimit:10;stroke-width:3px}.cls-9{fill:#ed1c24}</style><clipPath id="clip-path"><rect class="cls-1" x="-193.17" y="1.5" width="80.64" height="80.64" rx="6.34" ry="6.34"/></clipPath><clipPath id="clip-path-2"><path d="M-129.19 42.67h-16.75v-8.09h16.75zm-9.7 11.24h-16.75v-8.09h16.75zm-9.26 11.23h-16.75v-8.09h16.75zM-168 53.94v11.2h-5.27V20.65h34.82v10.9H-149v11.19h-9.5v11.2zm48.06-22.42h-15.73v-14h-40.69v50.77h31.24V57.06h9.45V45.83h9.46V34.61h6.27z" clip-rule="evenodd" fill="none"/></clipPath><clipPath id="clip-path-3"><rect class="cls-1" x="-96.5" y="1.5" width="80.64" height="80.64" rx="6.34" ry="6.34"/></clipPath><clipPath id="clip-path-4"><rect class="cls-1" x="1.5" y="1.5" width="80.64" height="80.64" rx="6.34" ry="6.34"/></clipPath><clipPath id="clip-path-5"><path class="cls-1" d="M-142.51-131.56h368.66v618.07h-368.66z"/></clipPath><clipPath id="clip-path-6"><rect class="cls-1" x="96.17" y="2.35" width="80.64" height="80.64" rx="6.34" ry="6.34"/></clipPath></defs><g clip-path="url(#clip-path)"><path class="cls-1" d="M-337.17-131.56H31.49v618.07h-368.66z"/></g><rect class="cls-1" x="-193.17" y="1.5" width="80.64" height="80.64" rx="6.34" ry="6.34"/><g clip-path="url(#clip-path-3)"><path class="cls-1" d="M-240.51-131.56h368.66v618.07h-368.66z"/></g><rect class="cls-1" x="-96.5" y="1.5" width="80.64" height="80.64" rx="6.34" ry="6.34"/><g clip-path="url(#clip-path-4)"><g clip-path="url(#clip-path-5)"><rect class="cls-1" x="1.5" y="1.5" width="80.64" height="80.64" rx="6.34" ry="6.34"/></g><path class="cls-1" d="M-142.51-131.56h368.66v618.07h-368.66z"/></g><rect class="cls-1" x="1.5" y="1.5" width="80.64" height="80.64" rx="6.34" ry="6.34"/><path class="cls-1" d="M36.85 42.72v39.42"/><path class="cls-8" d="M75.81 1.5H34.9l18.94 18.94 19.28 19.28-20.34 20.33L1.5 8.77v67a6.33 6.33 0 0 0 6.34 6.33h68a6.32 6.32 0 0 0 6.33-6.33v-68a6.33 6.33 0 0 0-6.36-6.27z"/><path class="cls-8" d="M19.98 23l31.3 31.31V23h-31.3zM68.87 39.72l-14.59-14.6v29.19l14.59-14.59zM15 1.5H7.84a6.32 6.32 0 0 0-5.73 3.64L15 18zM49.16 20L30.66 1.5H18V20h31.16z"/><path class="cls-9" d="M52.78 20a1.49 1.49 0 0 1 1.06.44L34.9 1.5h-4.24L49.16 20z"/><path class="cls-9" d="M73.12 39.72L53.84 20.44a1.51 1.51 0 0 1 .44 1.06v3.62l14.59 14.6-14.59 14.59v3.62h-3v-3.62L20 23h-3.5a1.5 1.5 0 0 1-1.5-1.5V18L2.11 5.14a6.25 6.25 0 0 0-.61 2.7v.93l51.28 51.28z"/><path class="cls-9" d="M19.98 23h31.3v31.31l1.5 1.5 1.5-1.5V25.12L49.16 20H18V1.5h-3v16.53L19.98 23z"/><path class="cls-9" d="M15 21.5a1.5 1.5 0 0 0 1.5 1.5H20l-5-5zM49.16 20l5.12 5.12V21.5a1.51 1.51 0 0 0-.44-1.06 1.49 1.49 0 0 0-1.06-.44zM51.28 54.31v3.62h3v-3.62l-1.5 1.5-1.5-1.5z"/><g clip-path="url(#clip-path-6)"><path class="cls-1" d="M-47.84-130.71h368.66v618.07H-47.84z"/></g><rect class="cls-1" x="96.17" y="2.35" width="80.64" height="80.64" rx="6.34" ry="6.34"/></svg>