<svg width="34" height="43" xmlns="http://www.w3.org/2000/svg"><path d="M28.792 0H4.8C2.158 0 0 2.148 0 4.776v33.448C0 40.852 2.158 43 4.8 43h23.994c2.642 0 4.8-2.148 4.8-4.776V4.776C33.594 2.148 31.436 0 28.792 0zM11.204 36.178c0 .66-.535 1.193-1.195 1.193H6.734a1.192 1.192 0 0 1-1.196-1.193V33.97c0-.66.534-1.188 1.196-1.188h3.275c.662 0 1.195.528 1.195 1.188v2.208zm0-7.35c0 .656-.535 1.193-1.195 1.193H6.734c-.663 0-1.196-.54-1.196-1.193V26.62a1.19 1.19 0 0 1 1.196-1.188h3.275a1.19 1.19 0 0 1 1.195 1.188v2.208zm0-7.348a1.19 1.19 0 0 1-1.195 1.19H6.734a1.19 1.19 0 0 1-1.196-1.19v-2.21a1.19 1.19 0 0 1 1.196-1.19h3.275a1.19 1.19 0 0 1 1.195 1.19v2.211zm8.425 14.698a1.19 1.19 0 0 1-1.194 1.19H15.16a1.19 1.19 0 0 1-1.195-1.19V33.97c0-.66.535-1.188 1.195-1.188h3.275c.662 0 1.194.528 1.194 1.188v2.208zm0-7.35c0 .656-.534 1.193-1.194 1.193H15.16c-.662 0-1.195-.54-1.195-1.193V26.62a1.19 1.19 0 0 1 1.195-1.188h3.275a1.19 1.19 0 0 1 1.194 1.188v2.208zm0-7.348c0 .655-.534 1.19-1.194 1.19H15.16a1.191 1.191 0 0 1-1.195-1.19v-2.21a1.19 1.19 0 0 1 1.195-1.19h3.275a1.19 1.19 0 0 1 1.194 1.19v2.211zm8.234 14.635a1.11 1.11 0 0 1-1.114 1.108H23.7a1.113 1.113 0 0 1-1.116-1.108v-9.43a1.11 1.11 0 0 1 1.116-1.106h3.05c.617 0 1.114.493 1.114 1.105v9.43zm.195-14.635a1.19 1.19 0 0 1-1.194 1.19h-3.278a1.192 1.192 0 0 1-1.194-1.19v-2.21c0-.66.536-1.19 1.194-1.19h3.278a1.19 1.19 0 0 1 1.194 1.19v2.211zm.735-10.254a1.92 1.92 0 0 1-1.92 1.912H6.719a1.92 1.92 0 0 1-1.92-1.912v-3.34a1.92 1.92 0 0 1 1.92-1.912h20.156a1.92 1.92 0 0 1 1.92 1.911l-.002 3.341z" fill="#f12337" fill-rule="evenodd"/></svg>