<svg width="44" height="35" xmlns="http://www.w3.org/2000/svg"><g fill="#f12337" fill-rule="evenodd"><path d="M43.4 14.253v-2.765c-.868.709-1.661 1.439-2.54 2.056-4.478 3.16-8.966 6.279-13.431 9.43a13.433 13.433 0 0 1-3.737 1.964 6.208 6.208 0 0 1-3.875.047 13.076 13.076 0 0 1-3.511-1.75c-3.428-2.462-6.88-4.86-10.308-7.322-2.005-1.436-4.21-2.608-5.998-4.59v19.35a4.015 4.015 0 0 0 1.14 2.839 3.946 3.946 0 0 0 2.797 1.19H39.42h-.001c2.175-.039 3.931-1.802 3.98-3.993-.06-5.482 0-10.968 0-16.456z"/><path d="M42.328 7.749a12.552 12.552 0 0 1-3.494 3.5c-4.01 2.785-8.02 5.578-12.01 8.404a19.803 19.803 0 0 1-3.553 2.188 3.567 3.567 0 0 1-3.199-.05 31.673 31.673 0 0 1-3.199-1.946 889.596 889.596 0 0 1-10.185-7.123c-1.502-1.068-3.108-2.017-4.34-3.408C1.436 8.304.612 7.236.23 5.893a5.005 5.005 0 0 1-.139-2.306 4.82 4.82 0 0 1 1.01-2.112A2.987 2.987 0 0 1 3.472.337c2.552-.034 5.1-.034 7.652-.04h28.24a3.913 3.913 0 0 1 3.962 3.242v.101a5.948 5.948 0 0 1-.997 4.109z"/></g></svg>