<?xml version="1.0" encoding="utf-8"?>
<!-- Generator: Adobe Illustrator 22.0.1, SVG Export Plug-In . SVG Version: 6.00 Build 0)  -->
<svg version="1.1" id="Layer_1" xmlns="http://www.w3.org/2000/svg" xmlns:xlink="http://www.w3.org/1999/xlink" x="0px" y="0px"
	 viewBox="0 0 83.6 83.6" style="enable-background:new 0 0 83.6 83.6;" xml:space="preserve">
<style type="text/css">
	.st0{clip-path:url(#SVGID_2_);}
	.st1{clip-path:url(#SVGID_4_);fill:none;stroke:#EC1C24;stroke-width:3;stroke-miterlimit:10;}
	.st2{fill:none;stroke:#EC1C24;stroke-width:3;stroke-miterlimit:10;}
</style>
<g>
	<defs>
		<path id="SVGID_1_" d="M7.8,1.5h68c3.5,0,6.3,2.8,6.3,6.3v68c0,3.5-2.8,6.3-6.3,6.3h-68c-3.5,0-6.3-2.8-6.3-6.3v-68
			C1.5,4.3,4.3,1.5,7.8,1.5z"/>
	</defs>
	<clipPath id="SVGID_2_">
		<use xlink:href="#SVGID_1_"  style="overflow:visible;"/>
	</clipPath>
	<g class="st0">
		<defs>
			<rect id="SVGID_3_" x="-142.5" y="-131.6" width="368.7" height="618.1"/>
		</defs>
		<clipPath id="SVGID_4_">
			<use xlink:href="#SVGID_3_"  style="overflow:visible;"/>
		</clipPath>
		<path class="st1" d="M7.8,1.5h68c3.5,0,6.3,2.8,6.3,6.3v68c0,3.5-2.8,6.3-6.3,6.3h-68c-3.5,0-6.3-2.8-6.3-6.3v-68
			C1.5,4.3,4.3,1.5,7.8,1.5z"/>
		<use xlink:href="#SVGID_3_"  style="overflow:visible;fill:none;stroke:#EC1C24;stroke-width:3;stroke-miterlimit:10;"/>
	</g>
	
		<use xlink:href="#SVGID_1_"  style="overflow:visible;fill-rule:evenodd;clip-rule:evenodd;fill:none;stroke:#EC1C24;stroke-width:3;stroke-miterlimit:10;"/>
</g>
<rect x="17.8" y="18.7" class="st2" width="48.3" height="40.6"/>
<polyline class="st2" points="66.1,37.4 25.2,37.4 25.2,59.3 25.2,67.5 17.8,67.5 17.8,74.5 "/>
<line class="st2" x1="35.6" y1="37.6" x2="35.6" y2="59.3"/>
<line class="st2" x1="45.8" y1="37.6" x2="45.8" y2="59.3"/>
<line class="st2" x1="56" y1="37.6" x2="56" y2="59.3"/>
</svg>
