<svg width="298" height="300" xmlns="http://www.w3.org/2000/svg" xmlns:xlink="http://www.w3.org/1999/xlink"><defs><path id="a" d="M0 0h148.903v148.904H0z"/><path id="c" d="M0 0h148.903v148.903H0z"/><path id="e" d="M0 0h148.904v148.903H0z"/><path id="g" d="M0 0h148.903v148.904H0z"/></defs><g fill="none" fill-rule="evenodd"><g transform="translate(149)"><mask id="b" fill="#fff"><use xlink:href="#a"/></mask><path d="M120.5 148.904h28.404C148.904 66.797 82.107 0 0 0v28.404c66.444 0 120.5 54.056 120.5 120.5" fill="#5E5E5E" mask="url(#b)"/></g><g transform="translate(149 151)"><mask id="d" fill="#fff"><use xlink:href="#c"/></mask><path d="M120.5 0c0 66.444-54.056 120.5-120.5 120.5v28.404c82.107 0 148.904-66.8 148.904-148.904h-28.405z" fill="#5E5E5E" mask="url(#d)"/></g><g transform="translate(0 151)"><mask id="f" fill="#fff"><use xlink:href="#e"/></mask><path d="M28.404 0H0c0 82.105 66.797 148.904 148.904 148.904v-28.405C82.46 120.5 28.404 66.444 28.404 0" fill="#5E5E5E" mask="url(#f)"/></g><mask id="h" fill="#fff"><use xlink:href="#g"/></mask><path d="M148.904 28.404V0C66.797 0 0 66.797 0 148.904h28.404c0-66.444 54.056-120.5 120.5-120.5" fill="#5E5E5E" mask="url(#h)"/><text font-family="AvenirNext-DemiBold, Avenir Next" font-size="24" font-weight="500" letter-spacing=".15" fill="#FFF"><tspan x="84.06" y="143.056">Loading…</tspan></text></g></svg>