<?xml version="1.0" encoding="utf-8"?>
<!-- Generator: Adobe Illustrator 28.1.0, SVG Export Plug-In . SVG Version: 6.00 Build 0)  -->
<svg version="1.1" id="Layer_1" xmlns="http://www.w3.org/2000/svg" xmlns:xlink="http://www.w3.org/1999/xlink" x="0px" y="0px"
	 viewBox="0 0 290 52.84" style="enable-background:new 0 0 290 52.84;" xml:space="preserve">
<style type="text/css">
	.st0{fill:#DA2727;}
</style>
<g>
	<g>
		<polygon class="st0" points="8.84,9.49 0,18.33 34.51,52.84 69.02,18.33 60.18,9.49 34.51,35.16 		"/>
		<g>
			
				<rect x="25.62" y="11.99" transform="matrix(0.7071 -0.7071 0.7071 0.7071 0.4566 35.6311)" class="st0" width="35.23" height="10.54"/>
			<polygon class="st0" points="33.41,0 17.24,16.18 9.8,8.74 18.54,0 			"/>
			<polygon class="st0" points="50.88,0.15 26.04,24.98 18.08,17.02 34.96,0.15 			"/>
		</g>
	</g>
	<path d="M99.46,12.97c-0.34-0.78-0.81-1.54-1.39-2.28c-0.59-0.74-1.33-1.4-2.21-1.97c-0.89-0.57-1.93-1.03-3.14-1.37
		c-1.21-0.34-2.61-0.51-4.22-0.51h-7.92v21.26h7.41c2.03,0,3.82-0.3,5.37-0.9c1.55-0.6,2.85-1.39,3.89-2.39
		c1.05-0.99,1.84-2.12,2.37-3.39c0.53-1.27,0.8-2.59,0.8-3.95c0-0.66-0.08-1.38-0.22-2.16C100.04,14.53,99.8,13.75,99.46,12.97z
		 M96.38,20.95c-0.51,0.99-1.21,1.82-2.09,2.48c-0.88,0.66-1.9,1.16-3.06,1.49c-1.17,0.33-2.4,0.5-3.7,0.5h-3.88V9.55h4.62
		c1.84,0,3.33,0.28,4.49,0.86s2.06,1.27,2.71,2.09c0.65,0.82,1.1,1.69,1.33,2.6c0.23,0.91,0.35,1.71,0.35,2.39
		C97.15,18.8,96.89,19.95,96.38,20.95z M106.35,25.4h11.46v2.7h-14.35V6.85h13.81v2.7h-10.91v6.34h10.15v2.7h-10.15V25.4z
		 M126.13,16.67l10.91,11.44h-4.18l-9.86-10.63h-0.24v10.63h-2.87V6.85h2.87v9.19h0.24l9.36-9.19h4L126.13,16.67z M140.05,6.85h2.9
		v21.26h-2.9V6.85z M164.2,6.85h2.9v21.26h-3.69L151.5,10.63h-0.06v17.48h-2.9V6.85h3.81l11.79,17.48h0.06L164.2,6.85L164.2,6.85z
		 M184.19,16.22h7.65V26.7c-0.52,0.32-1.12,0.6-1.78,0.84c-0.66,0.24-1.35,0.45-2.07,0.61c-0.72,0.17-1.44,0.3-2.18,0.37
		c-0.74,0.08-1.43,0.12-2.07,0.12c-1.81,0-3.43-0.3-4.85-0.9c-1.42-0.6-2.62-1.41-3.6-2.43c-0.98-1.02-1.72-2.21-2.24-3.56
		c-0.51-1.35-0.77-2.78-0.77-4.28c0-1.58,0.28-3.05,0.83-4.41c0.55-1.36,1.32-2.54,2.3-3.54c0.98-1,2.15-1.79,3.52-2.36
		c1.37-0.57,2.87-0.86,4.5-0.86c1.97,0,3.59,0.25,4.83,0.74c1.25,0.49,2.3,1.17,3.14,2.03l-2.06,2.19
		c-0.89-0.84-1.82-1.43-2.81-1.76S184.53,9,183.44,9c-1.23,0-2.34,0.23-3.32,0.68s-1.83,1.06-2.54,1.82
		c-0.7,0.76-1.25,1.66-1.63,2.69c-0.38,1.03-0.57,2.13-0.57,3.29c0,1.2,0.21,2.32,0.64,3.35c0.42,1.03,1.01,1.93,1.75,2.69
		c0.75,0.76,1.62,1.36,2.63,1.79c1.01,0.43,2.11,0.65,3.29,0.65c1.03,0,2-0.1,2.92-0.28c0.92-0.19,1.7-0.46,2.34-0.83v-5.92h-4.74
		L184.19,16.22L184.19,16.22z"/>
	<path class="st0" d="M214.76,12.97c-0.34-0.78-0.8-1.54-1.39-2.28c-0.59-0.74-1.32-1.4-2.2-1.97c-0.88-0.57-1.93-1.03-3.13-1.37
		c-1.2-0.34-2.6-0.51-4.19-0.51h-7.88v21.26h7.37c2.02,0,3.8-0.3,5.34-0.9c1.54-0.6,2.83-1.39,3.87-2.39
		c1.04-0.99,1.83-2.12,2.36-3.39c0.53-1.27,0.8-2.59,0.8-3.95c0-0.66-0.08-1.38-0.22-2.16C215.34,14.53,215.1,13.75,214.76,12.97z
		 M211.69,20.95c-0.51,0.99-1.2,1.82-2.07,2.48c-0.87,0.66-1.89,1.16-3.04,1.49c-1.16,0.33-2.39,0.5-3.68,0.5h-3.86V9.55h4.59
		c1.83,0,3.32,0.28,4.47,0.86c1.15,0.57,2.05,1.27,2.7,2.09s1.09,1.69,1.32,2.6c0.23,0.91,0.35,1.71,0.35,2.39
		C212.46,18.8,212.2,19.95,211.69,20.95z M222.08,25.4h11.46v2.7h-14.35V6.85h13.81v2.7h-10.91v6.34h10.15v2.7h-10.15V25.4z
		 M251.28,23.09l2.45,1.83c-0.16,0.22-0.44,0.54-0.85,0.95c-0.4,0.41-0.94,0.82-1.6,1.23c-0.66,0.41-1.46,0.77-2.4,1.08
		c-0.94,0.31-2.02,0.46-3.25,0.46c-1.69,0-3.22-0.32-4.58-0.96c-1.36-0.64-2.52-1.48-3.47-2.52c-0.96-1.04-1.69-2.22-2.19-3.53
		c-0.5-1.31-0.76-2.64-0.76-3.98c0-1.64,0.27-3.16,0.81-4.55c0.55-1.39,1.31-2.59,2.28-3.6c0.98-1.01,2.15-1.8,3.52-2.36
		c1.37-0.56,2.88-0.84,4.53-0.84c1.41,0,2.8,0.27,4.16,0.81c1.36,0.54,2.47,1.37,3.34,2.49l-2.42,1.83c-0.6-0.78-1.37-1.38-2.3-1.8
		c-0.93-0.42-1.88-0.63-2.87-0.63c-1.21,0-2.3,0.23-3.28,0.68c-0.98,0.45-1.81,1.07-2.51,1.85s-1.24,1.7-1.62,2.75
		c-0.38,1.05-0.57,2.18-0.57,3.38c0,1.12,0.18,2.18,0.55,3.18s0.89,1.88,1.57,2.64c0.68,0.76,1.52,1.36,2.51,1.8
		c0.99,0.44,2.11,0.66,3.36,0.66c1.23,0,2.31-0.25,3.23-0.75C249.84,24.7,250.63,23.99,251.28,23.09z M263.54,16.67l11.03,11.44
		h-4.23l-9.97-10.63h-0.24v10.63h-2.9V6.85h2.9v9.19h0.24l9.46-9.19h4.05L263.54,16.67z M290,22.07c0,1.02-0.2,1.94-0.59,2.76
		c-0.39,0.82-0.92,1.51-1.59,2.07s-1.45,0.99-2.36,1.29c-0.91,0.3-1.87,0.45-2.9,0.45c-1.37,0-2.67-0.24-3.9-0.72
		c-1.23-0.48-2.21-1.22-2.93-2.22l2.39-2.04c0.52,0.78,1.19,1.36,2.01,1.73c0.81,0.37,1.66,0.56,2.52,0.56
		c0.48,0,0.98-0.08,1.48-0.23c0.5-0.15,0.96-0.37,1.37-0.68c0.41-0.3,0.75-0.67,1.01-1.11c0.26-0.44,0.39-0.95,0.39-1.53
		c0-0.82-0.26-1.45-0.79-1.88s-1.17-0.79-1.95-1.08c-0.77-0.29-1.62-0.57-2.54-0.84c-0.92-0.27-1.76-0.65-2.54-1.13
		c-0.78-0.48-1.43-1.13-1.95-1.94c-0.52-0.81-0.79-1.91-0.79-3.29c0-0.62,0.14-1.28,0.41-1.98c0.27-0.7,0.7-1.34,1.28-1.92
		c0.58-0.58,1.33-1.07,2.25-1.46c0.92-0.39,2.02-0.59,3.31-0.59c1.17,0,2.29,0.16,3.36,0.48c1.07,0.32,2,0.97,2.81,1.95l-2.36,2.13
		c-0.36-0.56-0.88-1.01-1.54-1.35c-0.66-0.34-1.42-0.51-2.27-0.51c-0.81,0-1.48,0.1-2.01,0.32c-0.53,0.21-0.96,0.48-1.28,0.81
		c-0.32,0.33-0.55,0.69-0.68,1.07c-0.13,0.38-0.2,0.73-0.2,1.05c0,0.9,0.26,1.59,0.79,2.07c0.52,0.48,1.17,0.87,1.95,1.17
		c0.77,0.3,1.62,0.57,2.54,0.81c0.92,0.24,1.76,0.58,2.54,1.01s1.42,1.01,1.95,1.74C289.74,19.79,290,20.79,290,22.07z"/>
	<g>
		<path d="M80.91,36.2h2.96c0.55,0,1.11,0.09,1.67,0.28s1.06,0.46,1.51,0.84c0.45,0.37,0.81,0.84,1.09,1.4
			c0.28,0.56,0.41,1.21,0.41,1.95c0,0.75-0.14,1.4-0.41,1.95c-0.28,0.55-0.64,1.02-1.09,1.39c-0.45,0.37-0.95,0.65-1.51,0.84
			c-0.56,0.19-1.11,0.28-1.67,0.28h-2.96V36.2z M81.82,44.31h1.8c0.67,0,1.26-0.1,1.76-0.32c0.5-0.21,0.91-0.48,1.24-0.82
			c0.33-0.34,0.57-0.73,0.74-1.17c0.16-0.43,0.25-0.88,0.25-1.35c0-0.46-0.08-0.91-0.25-1.35c-0.16-0.44-0.41-0.82-0.74-1.17
			c-0.33-0.34-0.74-0.61-1.24-0.82c-0.5-0.21-1.08-0.32-1.76-0.32h-1.8V44.31z"/>
		<path d="M91.44,36.96c0,0.18-0.06,0.32-0.19,0.44c-0.12,0.11-0.26,0.17-0.41,0.17c-0.15,0-0.29-0.06-0.41-0.17
			c-0.12-0.11-0.19-0.26-0.19-0.44c0-0.18,0.06-0.32,0.19-0.43c0.12-0.11,0.26-0.17,0.41-0.17c0.15,0,0.29,0.06,0.41,0.17
			C91.38,36.64,91.44,36.78,91.44,36.96z M91.26,45.12h-0.86v-5.89h0.86V45.12z"/>
		<path d="M97.26,41.3c0-0.51-0.13-0.89-0.4-1.14c-0.27-0.25-0.66-0.37-1.17-0.37c-0.35,0-0.68,0.06-0.98,0.19
			c-0.3,0.12-0.56,0.29-0.77,0.5l-0.48-0.57c0.24-0.24,0.57-0.44,0.96-0.6c0.4-0.16,0.85-0.24,1.35-0.24c0.32,0,0.62,0.04,0.89,0.13
			c0.28,0.09,0.52,0.22,0.73,0.4c0.21,0.18,0.37,0.4,0.49,0.67c0.12,0.27,0.18,0.58,0.18,0.95v2.58c0,0.23,0.01,0.46,0.03,0.7
			s0.04,0.45,0.08,0.62h-0.77c-0.03-0.14-0.05-0.3-0.06-0.47c-0.02-0.17-0.03-0.33-0.03-0.49h-0.03c-0.27,0.39-0.57,0.68-0.91,0.85
			c-0.34,0.17-0.75,0.26-1.23,0.26c-0.23,0-0.46-0.03-0.7-0.1c-0.24-0.06-0.46-0.17-0.66-0.31c-0.2-0.14-0.36-0.33-0.49-0.56
			c-0.13-0.23-0.19-0.5-0.19-0.84c0-0.46,0.12-0.81,0.35-1.08c0.23-0.26,0.54-0.46,0.93-0.59c0.39-0.13,0.83-0.21,1.33-0.25
			c0.5-0.04,1.02-0.06,1.55-0.06L97.26,41.3L97.26,41.3z M97,42.17c-0.35,0-0.71,0.01-1.06,0.04c-0.36,0.03-0.68,0.09-0.97,0.18
			c-0.29,0.09-0.53,0.22-0.71,0.38c-0.19,0.17-0.28,0.39-0.28,0.67c0,0.21,0.04,0.39,0.12,0.53c0.08,0.14,0.19,0.26,0.32,0.35
			c0.13,0.09,0.28,0.15,0.45,0.19c0.16,0.04,0.33,0.06,0.5,0.06c0.3,0,0.57-0.05,0.81-0.16c0.23-0.1,0.43-0.25,0.59-0.43
			c0.16-0.18,0.28-0.39,0.37-0.62c0.08-0.23,0.12-0.48,0.12-0.74v-0.44L97,42.17L97,42.17z"/>
		<path d="M101.89,39.39c0.35-0.21,0.74-0.32,1.17-0.32c0.16,0,0.32,0.02,0.5,0.05c0.17,0.03,0.34,0.1,0.5,0.19
			c0.16,0.1,0.32,0.23,0.45,0.38c0.14,0.16,0.26,0.37,0.36,0.62c0.2-0.4,0.48-0.71,0.82-0.93c0.35-0.21,0.76-0.32,1.24-0.32
			c0.75,0,1.31,0.22,1.68,0.67s0.56,1.03,0.56,1.76v3.61h-0.86v-3.26c0-0.62-0.12-1.12-0.35-1.5c-0.23-0.38-0.62-0.57-1.18-0.57
			c-0.31,0-0.57,0.06-0.79,0.19c-0.21,0.12-0.39,0.29-0.52,0.5s-0.22,0.44-0.28,0.7c-0.06,0.26-0.09,0.53-0.09,0.81v3.13h-0.86
			v-3.44c0-0.28-0.02-0.55-0.06-0.78c-0.04-0.23-0.12-0.44-0.22-0.6s-0.25-0.29-0.44-0.38c-0.19-0.09-0.42-0.13-0.7-0.13
			c-0.2,0-0.41,0.05-0.61,0.14c-0.21,0.09-0.39,0.23-0.55,0.42s-0.3,0.43-0.4,0.72c-0.1,0.29-0.15,0.63-0.15,1.03v3.02h-0.86v-4.6
			c0-0.16,0-0.37-0.01-0.62c-0.01-0.25-0.02-0.48-0.04-0.68h0.82c0.02,0.16,0.03,0.34,0.04,0.53c0.01,0.19,0.01,0.35,0.01,0.48h0.03
			C101.28,39.89,101.54,39.61,101.89,39.39z"/>
		<path d="M117.24,42.17c0,0.44-0.08,0.86-0.23,1.24c-0.16,0.38-0.37,0.7-0.65,0.98c-0.28,0.28-0.61,0.49-0.99,0.65
			s-0.81,0.23-1.27,0.23c-0.45,0-0.87-0.08-1.26-0.23c-0.39-0.16-0.72-0.37-0.99-0.65c-0.28-0.28-0.49-0.6-0.65-0.98
			c-0.16-0.38-0.23-0.79-0.23-1.24c0-0.44,0.08-0.86,0.23-1.24c0.16-0.38,0.37-0.7,0.65-0.98c0.28-0.28,0.61-0.49,0.99-0.65
			c0.39-0.16,0.81-0.23,1.26-0.23c0.46,0,0.88,0.08,1.27,0.23c0.39,0.16,0.72,0.37,0.99,0.65c0.28,0.28,0.49,0.6,0.65,0.98
			C117.16,41.31,117.24,41.73,117.24,42.17z M116.34,42.17c0-0.33-0.05-0.64-0.16-0.93c-0.1-0.29-0.26-0.54-0.45-0.76
			c-0.19-0.21-0.43-0.38-0.7-0.51c-0.28-0.12-0.59-0.19-0.93-0.19c-0.34,0-0.65,0.06-0.93,0.19s-0.5,0.3-0.7,0.51
			c-0.19,0.21-0.34,0.47-0.45,0.76c-0.1,0.29-0.16,0.6-0.16,0.93s0.05,0.64,0.16,0.93s0.25,0.54,0.45,0.76
			c0.19,0.21,0.43,0.38,0.7,0.5s0.58,0.18,0.93,0.18s0.66-0.06,0.93-0.18c0.28-0.12,0.51-0.29,0.7-0.5
			c0.19-0.21,0.34-0.47,0.45-0.76C116.28,42.81,116.34,42.5,116.34,42.17z"/>
		<path d="M119.85,39.23c0.02,0.16,0.03,0.34,0.04,0.53c0.01,0.19,0.01,0.35,0.01,0.48h0.03c0.17-0.35,0.44-0.62,0.82-0.84
			c0.38-0.21,0.78-0.32,1.19-0.32c0.75,0,1.31,0.22,1.68,0.67c0.37,0.44,0.56,1.03,0.56,1.76v3.61h-0.86v-3.26
			c0-0.31-0.03-0.59-0.08-0.84c-0.05-0.25-0.14-0.47-0.26-0.65c-0.12-0.18-0.28-0.32-0.49-0.42c-0.21-0.1-0.46-0.15-0.77-0.15
			c-0.23,0-0.45,0.05-0.66,0.14c-0.21,0.09-0.41,0.23-0.57,0.42c-0.17,0.19-0.3,0.43-0.4,0.72c-0.1,0.29-0.15,0.63-0.15,1.03v3.02
			h-0.86v-4.6c0-0.16,0-0.37-0.01-0.62c-0.01-0.25-0.02-0.48-0.04-0.68L119.85,39.23L119.85,39.23z"/>
		<path d="M131.24,44.12c-0.25,0.38-0.58,0.66-0.98,0.86c-0.4,0.19-0.82,0.29-1.25,0.29c-0.46,0-0.88-0.08-1.25-0.24
			s-0.69-0.38-0.96-0.66c-0.26-0.28-0.47-0.6-0.62-0.98c-0.15-0.38-0.22-0.79-0.22-1.22c0-0.43,0.07-0.84,0.22-1.22
			c0.15-0.38,0.35-0.7,0.62-0.98c0.26-0.28,0.58-0.5,0.96-0.66c0.37-0.16,0.79-0.24,1.25-0.24c0.43,0,0.84,0.1,1.25,0.3
			c0.4,0.2,0.73,0.49,0.98,0.88h0.03v-4.65h0.86v9.52h-0.86v-0.99L131.24,44.12L131.24,44.12z M126.88,42.17
			c0,0.33,0.05,0.64,0.15,0.93c0.1,0.29,0.25,0.54,0.44,0.76c0.19,0.21,0.42,0.38,0.7,0.5s0.59,0.18,0.95,0.18
			c0.33,0,0.63-0.06,0.91-0.18s0.52-0.29,0.72-0.5c0.2-0.21,0.36-0.46,0.47-0.75c0.11-0.29,0.17-0.6,0.17-0.94
			c0-0.34-0.06-0.65-0.17-0.94c-0.11-0.29-0.27-0.54-0.47-0.76c-0.2-0.21-0.44-0.38-0.72-0.5c-0.28-0.12-0.58-0.18-0.91-0.18
			c-0.35,0-0.67,0.06-0.95,0.19c-0.28,0.12-0.51,0.3-0.7,0.51c-0.19,0.21-0.33,0.47-0.44,0.76
			C126.92,41.53,126.88,41.84,126.88,42.17z"/>
		<path d="M146.43,40.66c0,0.68-0.12,1.31-0.35,1.88s-0.56,1.06-0.98,1.48c-0.41,0.41-0.91,0.74-1.47,0.98
			c-0.57,0.23-1.18,0.35-1.84,0.35c-0.66,0-1.28-0.12-1.84-0.35c-0.57-0.23-1.06-0.56-1.47-0.98c-0.41-0.41-0.74-0.91-0.97-1.48
			c-0.23-0.57-0.35-1.2-0.35-1.88c0-0.68,0.12-1.3,0.35-1.88c0.23-0.57,0.56-1.06,0.97-1.48c0.41-0.41,0.91-0.74,1.47-0.98
			c0.57-0.23,1.18-0.35,1.84-0.35c0.66,0,1.28,0.12,1.84,0.35c0.57,0.23,1.06,0.56,1.47,0.98c0.41,0.41,0.74,0.91,0.98,1.48
			C146.31,39.36,146.43,39.98,146.43,40.66z M145.47,40.67c0-0.52-0.08-1.01-0.25-1.48s-0.41-0.88-0.73-1.24
			c-0.32-0.36-0.71-0.64-1.17-0.85c-0.46-0.21-0.97-0.31-1.54-0.31s-1.08,0.1-1.54,0.31c-0.46,0.21-0.85,0.49-1.17,0.85
			c-0.32,0.36-0.56,0.77-0.73,1.24c-0.17,0.47-0.25,0.96-0.25,1.48c0,0.52,0.08,1.01,0.25,1.48s0.41,0.88,0.73,1.23
			c0.32,0.35,0.71,0.63,1.17,0.84s0.97,0.31,1.54,0.31s1.08-0.1,1.54-0.31s0.85-0.49,1.17-0.84c0.32-0.35,0.56-0.76,0.73-1.23
			S145.47,41.19,145.47,40.67z"/>
		<path d="M152.55,45.12c-0.02-0.16-0.03-0.34-0.04-0.53c-0.01-0.19-0.01-0.35-0.01-0.48h-0.03c-0.17,0.35-0.44,0.62-0.82,0.84
			c-0.38,0.21-0.78,0.32-1.2,0.32c-0.75,0-1.31-0.22-1.68-0.67s-0.56-1.03-0.56-1.76v-3.61h0.86v3.26c0,0.31,0.03,0.59,0.08,0.84
			c0.05,0.25,0.14,0.47,0.26,0.65c0.12,0.18,0.28,0.32,0.49,0.42c0.21,0.1,0.46,0.15,0.77,0.15c0.23,0,0.45-0.05,0.66-0.14
			c0.21-0.09,0.41-0.23,0.57-0.42c0.17-0.19,0.3-0.43,0.4-0.72s0.15-0.63,0.15-1.03v-3.02h0.86v4.6c0,0.16,0,0.37,0.01,0.62
			c0.01,0.25,0.02,0.48,0.04,0.68L152.55,45.12L152.55,45.12z"/>
		<path d="M158.24,39.94h-1.66v3.44c0,0.22,0.02,0.4,0.06,0.54c0.04,0.14,0.1,0.26,0.18,0.33c0.08,0.08,0.17,0.13,0.28,0.16
			s0.23,0.04,0.35,0.04c0.12,0,0.24-0.02,0.37-0.05c0.13-0.03,0.26-0.08,0.37-0.14l0.04,0.74c-0.15,0.06-0.31,0.1-0.47,0.13
			c-0.16,0.03-0.34,0.04-0.54,0.04c-0.16,0-0.33-0.02-0.5-0.06c-0.18-0.04-0.34-0.12-0.49-0.24c-0.15-0.12-0.28-0.28-0.37-0.48
			c-0.1-0.2-0.15-0.47-0.15-0.79v-3.68h-1.22v-0.72h1.22v-1.66h0.86v1.66h1.66V39.94z"/>
		<path d="M164.42,44.12c-0.25,0.38-0.58,0.66-0.98,0.86c-0.4,0.19-0.82,0.29-1.25,0.29c-0.46,0-0.88-0.08-1.25-0.24
			c-0.37-0.16-0.69-0.38-0.96-0.66c-0.26-0.28-0.47-0.6-0.62-0.98c-0.15-0.38-0.22-0.79-0.22-1.22c0-0.43,0.07-0.84,0.22-1.22
			c0.15-0.38,0.35-0.7,0.62-0.98c0.26-0.28,0.58-0.5,0.96-0.66c0.37-0.16,0.79-0.24,1.25-0.24c0.43,0,0.84,0.1,1.25,0.3
			c0.4,0.2,0.73,0.49,0.98,0.88h0.03v-4.65h0.86v9.52h-0.86v-0.99L164.42,44.12L164.42,44.12z M160.05,42.17
			c0,0.33,0.05,0.64,0.15,0.93c0.1,0.29,0.25,0.54,0.43,0.76c0.19,0.21,0.42,0.38,0.7,0.5s0.59,0.18,0.95,0.18
			c0.33,0,0.63-0.06,0.91-0.18s0.52-0.29,0.72-0.5c0.2-0.21,0.36-0.46,0.47-0.75c0.11-0.29,0.17-0.6,0.17-0.94
			c0-0.34-0.06-0.65-0.17-0.94c-0.11-0.29-0.27-0.54-0.47-0.76c-0.2-0.21-0.44-0.38-0.72-0.5c-0.28-0.12-0.58-0.18-0.91-0.18
			c-0.35,0-0.67,0.06-0.95,0.19c-0.28,0.12-0.51,0.3-0.7,0.51c-0.19,0.21-0.33,0.47-0.43,0.76
			C160.1,41.53,160.05,41.84,160.05,42.17z"/>
		<path d="M173.45,42.17c0,0.44-0.08,0.86-0.23,1.24c-0.16,0.38-0.37,0.7-0.65,0.98c-0.28,0.28-0.61,0.49-0.99,0.65
			c-0.39,0.16-0.81,0.23-1.27,0.23c-0.45,0-0.87-0.08-1.26-0.23c-0.39-0.16-0.72-0.37-0.99-0.65c-0.28-0.28-0.49-0.6-0.65-0.98
			c-0.16-0.38-0.23-0.79-0.23-1.24c0-0.44,0.08-0.86,0.23-1.24c0.16-0.38,0.37-0.7,0.65-0.98c0.28-0.28,0.61-0.49,0.99-0.65
			c0.39-0.16,0.81-0.23,1.26-0.23c0.46,0,0.88,0.08,1.27,0.23c0.39,0.16,0.72,0.37,0.99,0.65c0.28,0.28,0.49,0.6,0.65,0.98
			C173.37,41.31,173.45,41.73,173.45,42.17z M172.54,42.17c0-0.33-0.05-0.64-0.16-0.93c-0.1-0.29-0.26-0.54-0.45-0.76
			c-0.19-0.21-0.43-0.38-0.7-0.51c-0.28-0.12-0.59-0.19-0.93-0.19c-0.35,0-0.65,0.06-0.93,0.19c-0.27,0.12-0.5,0.3-0.7,0.51
			s-0.34,0.47-0.45,0.76c-0.1,0.29-0.16,0.6-0.16,0.93s0.05,0.64,0.16,0.93s0.26,0.54,0.45,0.76c0.19,0.21,0.43,0.38,0.7,0.5
			c0.27,0.12,0.58,0.18,0.93,0.18c0.35,0,0.66-0.06,0.93-0.18c0.28-0.12,0.51-0.29,0.7-0.5c0.19-0.21,0.34-0.47,0.45-0.76
			C172.49,42.81,172.54,42.5,172.54,42.17z"/>
		<path d="M181.15,42.17c0,0.44-0.08,0.86-0.23,1.24c-0.16,0.38-0.37,0.7-0.65,0.98c-0.28,0.28-0.61,0.49-0.99,0.65
			c-0.39,0.16-0.81,0.23-1.27,0.23c-0.45,0-0.87-0.08-1.26-0.23c-0.39-0.16-0.72-0.37-0.99-0.65c-0.28-0.28-0.49-0.6-0.65-0.98
			c-0.16-0.38-0.23-0.79-0.23-1.24c0-0.44,0.08-0.86,0.23-1.24c0.16-0.38,0.37-0.7,0.65-0.98c0.28-0.28,0.61-0.49,0.99-0.65
			c0.39-0.16,0.81-0.23,1.26-0.23c0.46,0,0.88,0.08,1.27,0.23c0.39,0.16,0.72,0.37,0.99,0.65c0.28,0.28,0.49,0.6,0.65,0.98
			C181.07,41.31,181.15,41.73,181.15,42.17z M180.24,42.17c0-0.33-0.05-0.64-0.16-0.93c-0.1-0.29-0.26-0.54-0.45-0.76
			c-0.19-0.21-0.43-0.38-0.7-0.51c-0.28-0.12-0.59-0.19-0.93-0.19c-0.35,0-0.65,0.06-0.93,0.19c-0.27,0.12-0.5,0.3-0.7,0.51
			c-0.19,0.21-0.34,0.47-0.45,0.76c-0.1,0.29-0.16,0.6-0.16,0.93s0.05,0.64,0.16,0.93c0.1,0.29,0.26,0.54,0.45,0.76
			c0.19,0.21,0.43,0.38,0.7,0.5c0.27,0.12,0.58,0.18,0.93,0.18c0.35,0,0.66-0.06,0.93-0.18c0.28-0.12,0.51-0.29,0.7-0.5
			c0.19-0.21,0.34-0.47,0.45-0.76C180.19,42.81,180.24,42.5,180.24,42.17z"/>
		<path d="M182.97,39.9c-0.01-0.25-0.02-0.48-0.04-0.68h0.82c0.02,0.16,0.03,0.34,0.04,0.53c0.01,0.19,0.01,0.35,0.01,0.48h0.03
			c0.17-0.35,0.42-0.62,0.76-0.84c0.34-0.21,0.71-0.32,1.13-0.32c0.11,0,0.21,0,0.3,0.01c0.09,0.01,0.18,0.03,0.27,0.05l-0.11,0.82
			c-0.05-0.02-0.13-0.03-0.25-0.05c-0.12-0.02-0.23-0.03-0.35-0.03c-0.23,0-0.44,0.04-0.66,0.12c-0.21,0.08-0.39,0.21-0.55,0.39
			s-0.28,0.41-0.38,0.69s-0.15,0.62-0.15,1.01v3.02h-0.86v-4.6C182.98,40.36,182.98,40.16,182.97,39.9z"/>
		<path d="M191.62,44.31h4.16v0.81h-5.06V36.2h0.91V44.31z"/>
		<path d="M198.13,36.96c0,0.18-0.06,0.32-0.19,0.44c-0.12,0.11-0.26,0.17-0.41,0.17c-0.15,0-0.29-0.06-0.41-0.17
			c-0.12-0.11-0.19-0.26-0.19-0.44c0-0.18,0.06-0.32,0.19-0.43c0.12-0.11,0.26-0.17,0.41-0.17c0.15,0,0.29,0.06,0.41,0.17
			C198.07,36.64,198.13,36.78,198.13,36.96z M197.95,45.12h-0.86v-5.89h0.86V45.12z"/>
		<path d="M202.65,45.12h-0.95l-2.4-5.89h0.96l1.91,4.99h0.03l1.93-4.99h0.92L202.65,45.12z"/>
		<path d="M207.43,36.96c0,0.18-0.06,0.32-0.19,0.44c-0.12,0.11-0.26,0.17-0.41,0.17c-0.15,0-0.29-0.06-0.41-0.17
			c-0.12-0.11-0.19-0.26-0.19-0.44c0-0.18,0.06-0.32,0.19-0.43c0.12-0.11,0.26-0.17,0.41-0.17c0.15,0,0.29,0.06,0.41,0.17
			C207.36,36.64,207.43,36.78,207.43,36.96z M207.25,45.12h-0.86v-5.89h0.86V45.12z"/>
		<path d="M210.3,39.23c0.02,0.16,0.03,0.34,0.04,0.53c0.01,0.19,0.01,0.35,0.01,0.48h0.03c0.17-0.35,0.44-0.62,0.82-0.84
			c0.38-0.21,0.78-0.32,1.19-0.32c0.75,0,1.31,0.22,1.68,0.67c0.37,0.44,0.56,1.03,0.56,1.76v3.61h-0.86v-3.26
			c0-0.31-0.03-0.59-0.08-0.84c-0.05-0.25-0.14-0.47-0.26-0.65c-0.12-0.18-0.28-0.32-0.49-0.42c-0.21-0.1-0.46-0.15-0.77-0.15
			c-0.23,0-0.45,0.05-0.66,0.14c-0.21,0.09-0.41,0.23-0.57,0.42c-0.17,0.19-0.3,0.43-0.4,0.72c-0.1,0.29-0.15,0.63-0.15,1.03v3.02
			h-0.86v-4.6c0-0.16,0-0.37-0.01-0.62c-0.01-0.25-0.02-0.48-0.04-0.68L210.3,39.23L210.3,39.23z"/>
		<path d="M217.16,46.3c0.23,0.3,0.56,0.56,0.96,0.77c0.41,0.21,0.84,0.32,1.29,0.32c0.42,0,0.78-0.06,1.07-0.18
			c0.29-0.12,0.53-0.29,0.71-0.5c0.18-0.21,0.31-0.46,0.4-0.74c0.08-0.28,0.12-0.58,0.12-0.9v-1.11h-0.03
			c-0.23,0.37-0.55,0.66-0.96,0.86c-0.41,0.2-0.84,0.3-1.26,0.3c-0.46,0-0.88-0.08-1.25-0.23c-0.37-0.15-0.69-0.36-0.96-0.62
			c-0.26-0.26-0.47-0.58-0.62-0.95c-0.15-0.37-0.22-0.77-0.22-1.2c0-0.42,0.07-0.81,0.22-1.18s0.35-0.69,0.62-0.97
			c0.26-0.28,0.58-0.5,0.96-0.66c0.37-0.16,0.79-0.24,1.25-0.24c0.43,0,0.85,0.1,1.26,0.3c0.41,0.2,0.73,0.49,0.97,0.87h0.03v-1.02
			h0.86v5.84c0,0.32-0.04,0.66-0.13,1.02c-0.09,0.36-0.25,0.69-0.49,0.99c-0.24,0.3-0.57,0.55-0.98,0.76c-0.41,0.2-0.95,0.3-1.6,0.3
			c-0.55,0-1.07-0.1-1.56-0.32c-0.5-0.21-0.92-0.5-1.27-0.87L217.16,46.3z M217.32,42.1c0,0.31,0.05,0.6,0.15,0.88
			c0.1,0.28,0.25,0.52,0.43,0.73s0.42,0.38,0.7,0.5s0.59,0.18,0.95,0.18c0.33,0,0.63-0.06,0.91-0.16c0.28-0.11,0.52-0.26,0.72-0.47
			c0.2-0.2,0.36-0.44,0.47-0.72c0.11-0.28,0.17-0.59,0.17-0.94c0-0.31-0.06-0.6-0.17-0.88c-0.11-0.28-0.27-0.52-0.47-0.73
			c-0.2-0.21-0.44-0.38-0.72-0.5c-0.28-0.12-0.58-0.19-0.91-0.19c-0.35,0-0.67,0.06-0.95,0.19c-0.28,0.12-0.51,0.29-0.7,0.5
			c-0.19,0.21-0.33,0.45-0.43,0.73C217.37,41.49,217.32,41.79,217.32,42.1z"/>
	</g>
</g>
</svg>
