<svg width="263" height="126" xmlns="http://www.w3.org/2000/svg" xmlns:xlink="http://www.w3.org/1999/xlink"><defs><path id="a" d="M0 .366h262.007v85.616H0z"/><path id="c" d="M0 125.143h262.007V0H0z"/></defs><g transform="translate(.804)" fill="none" fill-rule="evenodd"><g transform="translate(0 39.16)"><mask id="b" fill="#fff"><use xlink:href="#a"/></mask><path d="M58.006.366h151.23c1.436 0 2.77.738 3.535 1.953l48.589 77.266c1.748 2.78-.25 6.398-3.535 6.398H4.182c-3.373 0-5.354-3.794-3.425-6.562L54.58 2.156a4.174 4.174 0 0 1 3.425-1.79" fill="#F1F1F1" mask="url(#b)"/></g><path d="M11.605 95.983h243.08M11.605 63.895h243.08" stroke="#FEFEFE" stroke-width="6"/><path d="M187.994 65.496c0 29.465-23.886 53.351-53.35 53.351-29.465 0-53.35-23.886-53.35-53.351s23.885-53.35 53.35-53.35c29.464 0 53.35 23.885 53.35 53.35" fill="#B4B5B5"/><path d="M187.994 65.496c0 29.465-23.886 53.351-53.35 53.351-29.465 0-53.35-23.886-53.35-53.351s23.885-53.35 53.35-53.35c29.464 0 53.35 23.885 53.35 53.35z" stroke="#3F3F3F" stroke-width="4"/><path d="M119.132 113.782h-8.997a52.986 52.986 0 0 0 11.289 4.298h2.006v-17.03l-4.298-.004v12.736zm-13.619-9.489l-8.407-.005a53.9 53.9 0 0 0 2.927 2.69l5.48.003v-2.688zm-11.433-3.268c.514.6 1.04 1.19 1.58 1.767v-1.766l-1.58-.001z" fill="#474646"/><mask id="d" fill="#fff"><use xlink:href="#c"/></mask><path fill="#F1F1F1" mask="url(#d)" d="M95.659 73.491h1.715V70.02h-1.715zm85.861 20.437l13.072-7.67.083-10.708-13.155-8.095zM95.659 79.65h1.715v-3.47h-1.715zm1.715-12.318v-.553c0-1.067-.74-2.017-1.715-2.373v2.926h1.715zm-1.718 18.474h1.718v-3.471h-1.718zm9.857-15.786h-4.516v9.628l4.513-.001v2.688h-4.513v9.63h4.513v2.688h-4.513v.37c0 .844-.25 1.6-.504 2.362h5.059c1.35 0 2.529-1.18 2.529-2.53V66.697c0-1.35-1.179-2.53-2.529-2.53h-5.23a5.57 5.57 0 0 1 .675 2.698v.468h4.516v2.688zm-9.853 31.006l23.472.02-23.473-.02zm-.004-9.061h1.718v-3.47h-1.718zm15.966-5.709h7.51v-10.79h-7.51zM177.89 71.92v-4.888c-.082-1.768-1.432-3.12-3.118-3.12l-51.341-.005v8.013h54.46zm-66.18 22.85c-.003 1.012-.339 2.026-.76 2.784h8.182v-7.832l-7.422-.01v5.058zm66.181-8.517v-10.79l-54.46.003v10.79zM123.43 101.05l51.427.047-51.426-.047zm51.427-3.496c.843 0 1.604-.253 2.193-.843.59-.59.844-1.35.84-2.19v-4.723l-54.46-.07v7.826h51.427zM91.356 64.273l-9.073.062c-.33 0-.649.072-.943.199-.02.616-.046 1.231-.046 1.853A53.092 53.092 0 0 0 91.31 97.492h.047l-.001-33.219zm20.262 2.417v5.23h7.515v-8.013l-8.276-.001c.507.844.76 1.768.76 2.783M95.656 97.312c.976-.354 1.718-1.306 1.718-2.374v-.286h-1.718v2.66z"/><path fill="#F1F1F1" mask="url(#d)" d="M100.997 70.02h4.517v-2.688h-4.517zm-9.641-5.747v33.219l3.488-.023c.282 0 .554-.063.812-.157v-2.659h1.718v-2.688h-1.718v-3.47h1.718v-2.689h-1.718v-3.47h1.718V79.65h-1.715v-3.47h1.715v-2.687h-1.715V70.02h1.715v-2.688h-1.715v-2.925a2.364 2.364 0 0 0-.815-.157l-3.488.023zm14.154 18.062v-2.688l-4.513.001v2.687zm-4.513 12.318h4.514v-2.688h-4.514zm18.135 2.901h4.298v-7.827l-4.298-.006zm0 3.493l4.298.004v-.001zm.001-14.791h4.298v-10.79h-4.298zm0-14.336h4.298v-8.013h-4.298zM95.66 101.026l-1.58-.002z"/><path fill="#9A9999" mask="url(#d)" d="M162.263 62.157l-.223-13.296-24.274-18.717-16.485 9.383-2.149 20.76z"/><path d="M91.356 61.959v-1.672h-8.57a6.53 6.53 0 0 0-1.148.107 52.793 52.793 0 0 0-.162 1.763l9.88-.198z" fill="#474646" mask="url(#d)"/><path d="M92.546 4.772v93.483c6.932 8.894 16.617 15.53 27.778 18.634V4.772H92.546z" fill="#FEFEFE" mask="url(#d)"/><path fill="#474646" mask="url(#d)" d="M119.133 60.287h-23.47v.884l5.285.003v.594l18.185-.364zm55.724.003l-51.427-.002v1.03zm31.621 20.824c0-1.014-.336-2.021-1.097-2.782l-.253-.253-.336-.336c-.254-.254-.508-.508-.843-.672l-25.802-15.856c-.507-.336-1.096-.59-1.686-.672-.503-.168-1.011-.168-1.604-.253l19.817 15.26 4.903 7.726-24.72 17.82c1.686 0 3.372-.673 4.554-1.854l24.452-14.334c.507-.171.928-.593 1.264-.929l.001.001c.843-.672 1.433-1.769 1.35-2.866"/><path fill="#474646" mask="url(#d)" d="M119.133 61.403l4.298-.085v-1.03h-4.298zm-18.184.364v-.593l-5.286-.004v-.884h-4.307v1.673zM91.31 97.492c.017.02.032.043.047.064v-.064h-.047zm9.687-27.472h-3.623v3.471h3.575v2.688h-3.575v3.47h3.623zm93.677 5.53l-.082 10.707-13.073 7.67V67.456l13.155 8.095-19.817-15.26-51.426 1.028v2.59l51.34.005c1.687 0 3.037 1.35 3.12 3.119v4.887h-54.46v3.547l54.46-.002v10.789l-54.46.003v3.471l54.46.07v4.724c.003.84-.25 1.601-.84 2.19-.59.59-1.35.843-2.193.843H123.43v3.496l51.426.046 24.72-17.82-4.903-7.726z"/><path d="M110.95 97.554c.42-.758.757-1.772.76-2.784v-5.058l7.422.01v-3.466h-7.51v-10.79h7.51V71.92h-7.515v-5.23c0-1.015-.253-1.94-.76-2.784l8.275.002v-2.504l-18.184.364v2.093H95.66v.546c.975.355 1.714 1.305 1.714 2.372v.553h3.624v-.467a5.56 5.56 0 0 0-.675-2.699h5.23c1.35 0 2.529 1.18 2.529 2.53v28.16c0 1.35-1.179 2.53-2.529 2.53h-5.06c.255-.762.505-1.52.505-2.362v-.371h-3.624v.285c0 1.068-.74 2.02-1.717 2.374v.812h5.29v2.688l-5.287.004v.21l23.473.021v-3.493h-8.182z" fill="#474646" mask="url(#d)"/><path fill="#474646" mask="url(#d)" d="M100.997 82.335h-3.623v3.471h3.571v2.688h-3.571v3.47h3.623zm-18.714-18l9.073-.062V61.96l-9.88.198c-.062.788-.108 1.58-.136 2.377a2.39 2.39 0 0 1 .943-.199m36.849 36.711l4.298.003v-3.496h-4.298zM94.844 64.25c.284 0 .556.062.815.156v-.544h5.29v-2.095l-9.593.192v2.314l3.488-.023zm-3.487 33.242v.064a53.83 53.83 0 0 0 2.723 3.468l1.58.001v-.21l5.285-.003v-2.688h-5.29v-.812a2.35 2.35 0 0 1-.81.157l-3.488.023zm6.017-27.472h3.623v-2.688h-3.623z"/><path fill="#474646" mask="url(#d)" d="M97.374 88.494h3.571v-2.688h-3.57zm3.623-8.845l-3.623.001v2.685h3.623zm18.136-15.742h4.298v-2.59l-4.298.087zM97.374 76.18h3.575v-2.69h-3.575zm21.759 13.541l4.298.006v-3.47h-4.298zm-21.759 4.932h3.623v-2.688h-3.623zm21.759-19.186l4.298-.001V71.92h-4.298z"/><path d="M95.66 102.792v1.494l1.446.001a55.244 55.244 0 0 1-1.447-1.495m-4.302-1.77l2.723.003v-.001z" fill="#FEFEFE" mask="url(#d)"/><path d="M82.377 54.744a53.614 53.614 0 0 0-1.084 10.752c0 27.623 20.994 50.343 47.896 53.076l1.814.15" stroke="#3F3F3F" stroke-width="4" mask="url(#d)"/><path fill="#474646" mask="url(#d)" d="M95.663 57.699h9.854V55.01h-9.86v-3.47h5.288v-2.689h-5.289V45.38h9.854v-2.688h-9.854v-3.47h5.29v-2.689h-5.29v-3.471h9.854v-2.688h-9.854V4.304h23.477v55.984h4.298V0l-4.298.002h-27.78v4.303l.002 55.982h4.308z"/></g></svg>