<svg width="277" height="128" xmlns="http://www.w3.org/2000/svg" xmlns:xlink="http://www.w3.org/1999/xlink"><defs><path id="a" d="M0 .608h276.198V29H0z"/></defs><g fill="none" fill-rule="evenodd"><path d="M224.727 39.045A4.413 4.413 0 0 0 220.998 37H61.438c-1.44 0-2.79.7-3.614 1.874L43 60h195l-13.273-20.955zM240.9 66H39.05L19 95h240z" fill="#F1F1F1"/><g transform="translate(0 99)"><mask id="b" fill="#fff"><use xlink:href="#a"/></mask><path d="M275.515 22.21L262.024.607H15.622L.797 22.035C-1.235 24.974.853 29 4.41 29h267.38c3.463 0 5.57-3.84 3.726-6.79" fill="#F1F1F1" mask="url(#b)"/></g><path d="M199 61.5C199 28.64 172.361 2 139.5 2 106.639 2 80 28.64 80 61.5c0 32.862 26.639 59.5 59.5 59.5 32.861 0 59.5-26.638 59.5-59.5" fill="#B4B5B5"/><path d="M199 61.5C199 28.64 172.361 2 139.5 2 106.639 2 80 28.64 80 61.5c0 32.862 26.639 59.5 59.5 59.5 32.861 0 59.5-26.638 59.5-59.5z" stroke="#3F3F3F" stroke-width="4"/><path d="M199 61.5C199 28.64 172.361 2 139.5 2 106.639 2 80 28.64 80 61.5c0 32.862 26.639 59.5 59.5 59.5 32.861 0 59.5-26.638 59.5-59.5z" stroke="#3F3F3F" stroke-width="4"/><path d="M84.872 85.12A59.313 59.313 0 0 1 80 61.5C80 28.64 106.64 2 139.5 2S199 28.64 199 61.5 172.36 121 139.5 121c-6.3 0-12.37-.979-18.07-2.793" stroke="#3F3F3F" stroke-width="4"/><path d="M99.278 105L120 84.13 96 66v35.712A59.667 59.667 0 0 0 99.278 105m24.232-19L102 107.49a59.01 59.01 0 0 0 4.92 3.51H176l-25.023-25H123.51zM179 108V66l-24 18.002zm-79-56l-4 3.033V60h4zm70.632 16.164L163 74l17-13-4.259 3.257zM179 60v-4.965L175 52v8z" fill="#F1F1F1"/><path d="M95.003 66.152V55.568L99 52.331V47l-7.199 5.833a2.21 2.21 0 0 0-.599.774 2.247 2.247 0 0 0-.202.94v42.396A59.23 59.23 0 0 0 95.003 102V66.152zm88.77-12.655a2.115 2.115 0 0 0-.618-.734L175.569 47v5.264l4.214 3.201v55.361H107a59.4 59.4 0 0 0 7.806 4.174h67.085a2.099 2.099 0 0 0 2.109-2.09V54.457a2.15 2.15 0 0 0-.227-.96" fill="#3F3F3F"/><path d="M179.998 108.05l-24.103-23.91 24.103-17.936v41.846zm-20.095-32.1l-6.722 5-1.183.88h-27.996l-1.183-.88-2.971-2.21-3.75-2.79h-.78a2.505 2.505 0 0 1-1.817-.65 2.475 2.475 0 0 1-.822-1.733c-.002-.052.008-.102.008-.153l-5.55-4.13-1.9-1.412-5.04-3.75L96 61v5.204l24.103 17.936-20.81 20.645c1.036.94 2.11 1.839 3.212 2.705L124.167 86h27.663l25.2 25H180V61l-16.77 12.474-3.327 2.476z" fill="#3F3F3F"/><path d="M137.5 39.025c-4.811 0-8.853-3.276-8.853-7.588 0-.642.111-1.264.272-1.871.732-2.785 3.023-5.089 6.052-5.6v-1.383a2.529 2.529 0 0 1 2.253-2.569v.006-.006a2.527 2.527 0 0 1 1.985.652c.54.49.835 1.191.821 1.917v1.265h3.795a2.563 2.563 0 0 1 1.812.731 2.533 2.533 0 0 1 0 3.602c-.212.207-.46.366-.724.487-.34.156-.709.245-1.088.239h-7.59c-1.892 0-2.529.899-2.529 2.53 0 1.293.973 2.53 3.794 2.53 4.812 0 8.853 3.274 8.853 7.587 0 3.577-2.637 6.848-6.323 7.47v1.383a2.531 2.531 0 0 1-4.333 1.813 2.539 2.539 0 0 1-.726-1.813v-1.264h-3.795a2.536 2.536 0 0 1-1.813-.727 2.542 2.542 0 0 1-.75-1.803 2.53 2.53 0 0 1 2.563-2.53h7.589c1.892 0 2.53-.898 2.53-2.529 0-1.294-.974-2.529-3.795-2.529m-21.298.284C117.574 49.876 126.548 58 137.5 58c10.952 0 19.926-8.125 21.298-18.693.12-.92.202-1.853.202-2.807 0-.838-.059-1.66-.152-2.474C157.627 23.294 148.568 15 137.5 15s-20.127 8.294-21.348 19.027A21.75 21.75 0 0 0 116 36.5c0 .955.083 1.887.202 2.809" fill="#F1F1F1"/><path d="M112 73.182c.026.784.286 1.522.722 2.047.432.53 1.006.807 1.594.767H115L112.007 73c0 .062-.009.12-.007.182" fill="#3F3F3F"/><path fill="#F1F1F1" d="M175 64l4-3h-4zm-75-3h-4l4 3zm0 3l-4-3 4 3zm19.766 14.789L122.751 81h30.498L160 76h-44zM137.5 10.035c14.467 0 26.25 11.867 26.25 26.438 0 .494-.027.983-.054 1.47a26.311 26.311 0 0 1-.697 4.756 26.516 26.516 0 0 1-14.49 17.738c-3.354 1.57-7.075 2.473-11.009 2.473s-7.655-.903-11.008-2.473a26.515 26.515 0 0 1-14.49-17.736 26.332 26.332 0 0 1-.698-4.756 26.642 26.642 0 0 1-.054-1.472c0-14.571 11.783-26.438 26.25-26.438zM105 67.358l1.885 1.424 5.505 4.157a2.506 2.506 0 0 1 .642-1.66 2.51 2.51 0 0 1 1.969-.82h44.998c.67-.011 1.314.25 1.793.726.474.472.741 1.117.741 1.791l-.001.024L170 67.36V5h-65v62.357z"/><path d="M139.302 44.104h-7.7a2.577 2.577 0 0 0-1.84.73 2.518 2.518 0 0 0-.762 1.8c0 .678.276 1.33.763 1.805a2.59 2.59 0 0 0 1.84.726h3.849v1.266c-.01.677.256 1.329.736 1.813a2.59 2.59 0 0 0 3.66 0 2.523 2.523 0 0 0 .736-1.813v-1.385c3.74-.622 6.416-3.895 6.416-7.474 0-4.314-4.1-7.59-8.981-7.59-2.863 0-3.85-1.237-3.85-2.532 0-1.631.646-2.53 2.566-2.53h7.7c.385.006.759-.084 1.104-.24L138.02 23l-8.707 6.578c-.163.609-.277 1.231-.277 1.872 0 4.315 4.1 7.593 8.984 7.593 2.86 0 3.85 1.235 3.85 2.53 0 1.63-.648 2.53-2.567 2.53" fill="#3F3F3F"/><path d="M144.565 29.062c.257-.127.499-.293.705-.51.466-.496.73-1.178.73-1.885a2.75 2.75 0 0 0-.73-1.88 2.407 2.407 0 0 0-1.764-.764h-3.693V22.7c.013-.76-.274-1.493-.799-2.003a2.35 2.35 0 0 0-1.932-.682v.005-.005c-1.27.15-2.222 1.316-2.193 2.685v1.447c-2.947.533-5.176 2.941-5.889 5.852l8.352-6.874 7.213 5.936z" fill="#3F3F3F"/><path d="M105 5.07h65v38.044L175 47V2.537c0-1.4-1.118-2.533-2.5-2.533h-70a1.785 1.785 0 0 0-.234 0c-1.289.118-2.27 1.222-2.266 2.533V47l5-3.885V5.071zm-5 58.204L105 67V48l-5 3.807v8.364zm70-3.104V67l5-3.725V51.806L170 48z" fill="#3F3F3F"/><path fill="#3F3F3F" d="M105 48.206V43l-5 3.797V52zm65-.001L175 52v-5.202L170 43zM100 64l5 4-5-4zm23.17 18h27.66l1.17-1h-30zm38.09-10.275a2.485 2.485 0 0 0-1.787-.721h-44.87a2.507 2.507 0 0 0-1.962.814 2.477 2.477 0 0 0-.641 1.646L115.374 76h43.331l3.293-2.474.002-.025c0-.668-.268-1.307-.74-1.776m-45.061-37.672c1.219-10.718 10.257-19.001 21.301-19.001 11.043 0 20.081 8.283 21.301 19l5.144 3.947c.027-.49.055-.98.055-1.476C164 21.905 152.106 10 137.5 10S111 21.905 111 36.523c0 .497.027.986.054 1.477l5.145-3.947zM137.5 57.888c-10.825 0-19.695-8.209-21.052-18.886L112 42.486c1.905 7.997 7.326 14.6 14.49 18.004 3.354 1.595 7.075 2.51 11.01 2.51 3.934 0 7.656-.915 11.01-2.51 7.164-3.404 12.585-10.008 14.49-18.005L158.551 39c-1.356 10.678-10.227 18.888-21.051 18.888"/><path d="M115.806 36.55c0-.864.057-1.713.146-2.55L111 38.074a28.97 28.97 0 0 0 .678 4.926L116 39.445a24.272 24.272 0 0 1-.194-2.895m43.388.001c0 .983-.08 1.945-.194 2.894L163.323 43c.361-1.592.59-3.238.677-4.926L159.048 34c.09.838.146 1.686.146 2.551" fill="#3F3F3F"/><path d="M88 91c7.22 12.72 18.961 22.47 33 27" stroke="#3F3F3F" stroke-width="4"/></g></svg>