<svg id="Layer_1" data-name="Layer 1" xmlns="http://www.w3.org/2000/svg" viewBox="0 0 326.05 170.07"><defs><style>.cls-1,.cls-4{fill:#f2f2f3}.cls-3,.cls-4{stroke:#40403f;stroke-miterlimit:10;stroke-width:4px}.cls-3{fill:none}.cls-5{fill:#9b9a9a}.cls-8{fill:#40403f}</style></defs><path class="cls-1" d="M264.78 66a5.2 5.2 0 0 0-4.4-2.43H72.19a5.21 5.21 0 0 0-4.27 2.22L50.44 90.85h230zM284.21 96.85H46.26l-23.64 33.93h282.93l-21.34-33.93zM325.25 162.11l-15.93-25.33H18.44L.94 161.91a5.19 5.19 0 0 0 4.26 8.16h315.65a5.2 5.2 0 0 0 4.4-7.96z"/><circle cx="164.04" cy="85.72" r="69.96" stroke="#40403f" stroke-miterlimit="10" stroke-width="4" fill="#b5b5b6"/><path class="cls-3" d="M103.35 120.55a70.2 70.2 0 0 0 39.44 31.85"/><circle class="cls-3" cx="164.04" cy="85.72" r="69.96"/><path class="cls-4" d="M133.24 148.55c-.58-.29-1.15-.59-1.72-.89.57.34 1.14.6 1.72.89zM130.37 147.05zM139.38 151.2c-.72-.27-1.43-.55-2.14-.85.76.3 1.42.58 2.14.85zM177.93 154.3a79.834 79.834 0 0 0 0 0zM136.1 149.86c-.57-.24-1.13-.5-1.68-.76.58.26 1.11.52 1.68.76zM107.42 126.79l-.33-.46zM109.16 129.08c-.16-.19-.31-.39-.47-.59.16.2.31.4.47.59zM121.84 141.52l-1-.8zM110.66 130.93c0-.07-.11-.13-.16-.19s.11.12.16.19zM114.09 134.69l-.49-.51zM118.43 138.74l-.86-.74zM174.12 155c-.82.12-1.64.22-2.47.31.83-.14 1.65-.24 2.47-.31zM103.25 120.34L103 120zM126.89 145l-1.31-.83zM102 118c-.09-.15-.16-.31-.24-.47.04.12.11.28.24.47zM124.3 143.29l-1.17-.83zM170.59 155.37c-.76.07-1.53.12-2.3.17.77-.05 1.54-.1 2.3-.17zM156.43 155.26zM159.78 155.54c-.77 0-1.54-.1-2.3-.17.76.07 1.52.12 2.3.17zM149.29 154.11q-1.12-.24-2.22-.51 1.1.27 2.22.51zM153.23 154.85zM146 153.32c-.69-.19-1.37-.38-2-.59.61.21 1.29.4 2 .59zM116.22 136.77l-.77-.74zM142.93 152.43c-1-.3-1.9-.62-2.84-1 .91.38 1.91.7 2.84 1z"/><path class="cls-3" d="M120.83 140.72q-1.23-1-2.4-2 1.17 1.04 2.4 2zM143.93 152.73c-.33-.1-.67-.19-1-.3.33.11.67.2 1 .3zM157.48 155.37l-1-.11zM117.57 138l-1.35-1.23zM137.24 150.35l-1.14-.49zM125.58 144.16l-1.28-.87zM147.07 153.6l-1.09-.28zM140.09 151.47c-.24-.08-.47-.18-.71-.27.24.09.47.19.71.27zM128.11 145.75zM123.13 142.46l-1.29-.94zM134.42 149.1l-1.18-.55zM154 155l-.72-.1zM150.15 154.3l-.86-.19zM131.52 147.66l-1.15-.61zM174.84 154.85l-.72.1zM115.45 136c-.46-.44-.91-.88-1.36-1.34.45.49.91.93 1.36 1.34zM171.65 155.26l-1.06.11zM103 120c-.37-.66-.73-1.32-1.08-2 .39.64.75 1.3 1.08 2zM110.5 130.74c-.46-.55-.9-1.1-1.34-1.66.44.56.84 1.11 1.34 1.66zM107.09 126.33a70.79 70.79 0 0 1-3.84-6 70.79 70.79 0 0 0 3.84 6zM113.6 134.18q-1.51-1.59-2.94-3.25 1.43 1.66 2.94 3.25zM108.69 128.49c-.43-.56-.86-1.12-1.27-1.7.41.58.84 1.14 1.27 1.7z"/><path class="cls-4" d="M229.44 110.57C229.27 110.4 209 90.4 164 90.4c-1.18 0-2.46 0-3.79.06l-1.67.06-1.75.09c-4.14.23-8.77.67-13.63 1.39h-.28l-1.45.23-.74.12-1.28.22-.94.17-1.19.23-1 .2-1.14.24-1.11.23-1.1.25-1.15.27-1.08.27-1.17.3-1.06.28-1.19.33-1 .3-1.19.37-1 .32-1.21.39-1 .34-1.19.43-1 .36-1.18.46-1 .39-1.17.49-1 .41-1.15.52-.93.44-1.13.56-.91.46c-.37.19-.74.4-1.1.6l-.89.48c-.36.21-.72.42-1.07.64s-.57.33-.85.51-.71.45-1.06.68l-.81.53c-.35.24-.7.48-1 .73l-.76.54-1 .81-.67.53c-.38.31-.74.63-1.11.94l-.54.47c-.54.49-1.06 1-1.57 1.49.42 1.08.86 2.14 1.33 3.2.09.22.19.43.29.65.46 1 1 2.06 1.46 3.07.08.15.15.31.24.46a64.933 64.933 0 0 0 3.01 5.21l.27.43c.6.93 1.21 1.84 1.85 2.73.67.94 1.36 1.85 2.07 2.75.44.56.88 1.11 1.34 1.66l.16.18q1.43 1.66 2.94 3.25l.48.51.72.71c.46.46.93.92 1.41 1.37l.81.74c1.23 1.11 2.49 2.18 3.8 3.21l1 .8.15.11c1 .71 1.92 1.39 2.9 2.06l.69.47c.59.39 1.19.76 1.79 1.13l.74.46c.74.45 1.5.88 2.26 1.3l1.15.61c1.5.79 3 1.52 4.58 2.2l1.14.49c.74.31 1.49.61 2.25.89l.6.23c1.92.7 3.89 1.31 5.89 1.85l1.09.28q1.1.27 2.22.51l.45.1c1.15.24 2.32.46 3.49.64l.53.07c.89.13 1.77.25 2.67.34l1 .11c.89.08 1.79.14 2.69.19h.6c1.08.05 2.16.08 3.26.08s2.18 0 3.26-.08l1-.06c.77 0 1.54-.1 2.3-.17l1-.1q3.21-.35 6.32-1l.86-.19 2.22-.51 1.08-.28c.89-.24 1.77-.5 2.65-.77l.39-.12q1.44-.45 2.85-1l.7-.27c1.08-.41 2.15-.84 3.2-1.3h.09c.56-.24 1.12-.5 1.67-.76.39-.18.78-.36 1.17-.56q2.64-1.29 5.13-2.79l1.11-.69 1.41-.9.45-.31c.83-.55 1.65-1.13 2.45-1.71l.84-.62a70.24 70.24 0 0 0 23.18-30.82z"/><rect class="cls-5" x="117.29" y="77.24" width="87.25" height="4.25" rx="2.12" ry="2.12"/><rect class="cls-5" x="117.29" y="65.74" width="87.25" height="4.25" rx="2.12" ry="2.12"/><rect class="cls-5" x="117.29" y="54.24" width="87.25" height="4.25" rx="2.12" ry="2.12"/><path d="M166.65 26.91a12.21 12.21 0 0 0-4.77-1 12.49 12.49 0 0 0 0 25 12.49 12.49 0 0 0 4.8-24z" fill="#b0afa7"/><path d="M161.9 5.65A29.38 29.38 0 0 0 140.47 15a33.77 33.77 0 0 0-.05 45.81l21.4 22.76 22.72-24.06h-.1a33.8 33.8 0 0 0-1.13-44.46 29.36 29.36 0 0 0-21.41-9.4zm12.78 45.64a18.14 18.14 0 0 1-25.66 0 18.13 18.13 0 0 1 0-25.65 18.15 18.15 0 0 1 31 12.86 18.27 18.27 0 0 1-5.34 12.79z" fill="#fff"/><path class="cls-8" d="M161.91 0a35 35 0 0 0-25.54 11.14 39.56 39.56 0 0 0-.06 53.6l18.77 19.93 5.21 6.94h2.83l5.52-7 18.74-19.83a39.55 39.55 0 0 0 .06-53.59A35 35 0 0 0 161.91 0zm22.53 59.53h.1l-22.72 24.06-21.4-22.76a33.77 33.77 0 0 1 .05-45.83 29.38 29.38 0 0 1 21.43-9.35 29.36 29.36 0 0 1 21.41 9.42 33.8 33.8 0 0 1 1.13 44.46z"/><path class="cls-8" d="M161.88 20.31a18 18 0 0 0-12.83 5.3 18.13 18.13 0 0 0 0 25.65 18.14 18.14 0 0 0 25.66 0A18.27 18.27 0 0 0 180 38.47a18.16 18.16 0 0 0-18.13-18.16zm0 30.62a12.49 12.49 0 0 1 0-25 12.21 12.21 0 0 1 4.77 1 12.49 12.49 0 0 1-4.8 24z"/><path class="cls-4" d="M162.04 88.99l11 16 4.89 49.31"/><path class="cls-3" d="M162.04 88.99l-11 16-4.88 49.31"/><path class="cls-4" d="M162.29 98.99v-9.75M162.29 114.99v-9.25M162.29 136.74v-11.25M162.29 156.24v-11.25"/></svg>