<svg id="Layer_1" data-name="Layer 1" xmlns="http://www.w3.org/2000/svg" viewBox="0 0 326.05 170.07"><defs><style>.cls-1,.cls-4{fill:#f2f2f3;}.cls-2{fill:#b5b5b6;}.cls-2,.cls-3,.cls-4{stroke:#40403f;stroke-miterlimit:10;stroke-width:4px;}.cls-3{fill:none;}.cls-5{fill:#9b9a9a;}.cls-6{fill:#b0afa7;}.cls-7{fill:#fff;}.cls-8{fill:#40403f;}</style></defs><title>dekingdecks_icons_final</title><path class="cls-1" d="M264.78,66a5.2,5.2,0,0,0-4.4-2.43H72.19a5.21,5.21,0,0,0-4.27,2.22L50.44,90.85h230Z"/><polygon class="cls-1" points="284.21 96.85 46.26 96.85 22.62 130.78 305.55 130.78 284.21 96.85"/><path class="cls-1" d="M325.25,162.11l-15.93-25.33H18.44L.94,161.91a5.19,5.19,0,0,0,4.26,8.16H320.85A5.2,5.2,0,0,0,325.25,162.11Z"/><circle class="cls-2" cx="164.04" cy="85.72" r="69.96"/><path class="cls-3" d="M103.35,120.55a70.2,70.2,0,0,0,39.44,31.85"/><circle class="cls-3" cx="164.04" cy="85.72" r="69.96"/><path class="cls-4" d="M133.24,148.55c-.58-.29-1.15-.59-1.72-.89C132.09,148,132.66,148.26,133.24,148.55Z"/><path class="cls-4" d="M130.37,147.05c-.76-.42-1.52-.85-2.26-1.3C128.85,146.2,129.61,146.63,130.37,147.05Z"/><path class="cls-4" d="M139.38,151.2c-.72-.27-1.43-.55-2.14-.85C138,150.65,138.66,150.93,139.38,151.2Z"/><path class="cls-4" d="M177.93,154.3c-1,.2-2.05.39-3.09.55C175.88,154.69,176.9,154.5,177.93,154.3Z"/><path class="cls-4" d="M136.1,149.86c-.57-.24-1.13-.5-1.68-.76C135,149.36,135.53,149.62,136.1,149.86Z"/><path class="cls-4" d="M107.42,126.79l-.33-.46Z"/><path class="cls-4" d="M109.16,129.08c-.16-.19-.31-.39-.47-.59C108.85,128.69,109,128.89,109.16,129.08Z"/><path class="cls-4" d="M121.84,141.52l-1-.8Z"/><path class="cls-4" d="M110.66,130.93c0-.07-.11-.13-.16-.19S110.61,130.86,110.66,130.93Z"/><path class="cls-4" d="M114.09,134.69l-.49-.51Z"/><path class="cls-4" d="M118.43,138.74l-.86-.74Z"/><path class="cls-4" d="M174.12,155c-.82.12-1.64.22-2.47.31C172.48,155.17,173.3,155.07,174.12,155Z"/><path class="cls-4" d="M103.25,120.34,103,120Z"/><path class="cls-4" d="M126.89,145l-1.31-.83Z"/><path class="cls-4" d="M102,118c-.09-.15-.16-.31-.24-.47C101.8,117.65,101.87,117.81,102,118Z"/><path class="cls-4" d="M124.3,143.29l-1.17-.83Z"/><path class="cls-4" d="M170.59,155.37c-.76.07-1.53.12-2.3.17C169.06,155.49,169.83,155.44,170.59,155.37Z"/><path class="cls-4" d="M156.43,155.26c-.83-.09-1.66-.19-2.48-.31C154.77,155.07,155.6,155.17,156.43,155.26Z"/><path class="cls-4" d="M159.78,155.54c-.77,0-1.54-.1-2.3-.17C158.24,155.44,159,155.49,159.78,155.54Z"/><path class="cls-4" d="M149.29,154.11q-1.12-.24-2.22-.51Q148.17,153.87,149.29,154.11Z"/><path class="cls-4" d="M153.23,154.85c-1-.16-2.06-.35-3.08-.55C151.17,154.5,152.2,154.69,153.23,154.85Z"/><path class="cls-4" d="M146,153.32c-.69-.19-1.37-.38-2-.59C144.61,152.94,145.29,153.13,146,153.32Z"/><path class="cls-4" d="M116.22,136.77l-.77-.74Z"/><path class="cls-4" d="M142.93,152.43c-1-.3-1.9-.62-2.84-1C141,151.81,142,152.13,142.93,152.43Z"/><path class="cls-3" d="M120.83,140.72q-1.23-1-2.4-2Q119.6,139.76,120.83,140.72Z"/><path class="cls-3" d="M143.93,152.73c-.33-.1-.67-.19-1-.3C143.26,152.54,143.6,152.63,143.93,152.73Z"/><path class="cls-3" d="M157.48,155.37l-1-.11Z"/><path class="cls-3" d="M117.57,138l-1.35-1.23Z"/><path class="cls-3" d="M137.24,150.35l-1.14-.49Z"/><path class="cls-3" d="M125.58,144.16l-1.28-.87Z"/><path class="cls-3" d="M147.07,153.6l-1.09-.28Z"/><path class="cls-3" d="M140.09,151.47c-.24-.08-.47-.18-.71-.27C139.62,151.29,139.85,151.39,140.09,151.47Z"/><path class="cls-3" d="M128.11,145.75c-.41-.24-.82-.5-1.22-.76C127.29,145.25,127.7,145.51,128.11,145.75Z"/><path class="cls-3" d="M123.13,142.46l-1.29-.94Z"/><path class="cls-3" d="M134.42,149.1l-1.18-.55Z"/><path class="cls-3" d="M154,155l-.72-.1Z"/><path class="cls-3" d="M150.15,154.3l-.86-.19Z"/><path class="cls-3" d="M131.52,147.66l-1.15-.61Z"/><path class="cls-3" d="M174.84,154.85l-.72.1Z"/><path class="cls-3" d="M115.45,136c-.46-.44-.91-.88-1.36-1.34C114.54,135.15,115,135.59,115.45,136Z"/><path class="cls-3" d="M171.65,155.26l-1.06.11Z"/><path class="cls-3" d="M103,120c-.37-.66-.73-1.32-1.08-2C102.31,118.64,102.67,119.3,103,120Z"/><path class="cls-3" d="M110.5,130.74c-.46-.55-.9-1.1-1.34-1.66C109.6,129.64,110,130.19,110.5,130.74Z"/><path class="cls-3" d="M107.09,126.33a70.79,70.79,0,0,1-3.84-6A70.79,70.79,0,0,0,107.09,126.33Z"/><path class="cls-3" d="M113.6,134.18q-1.51-1.59-2.94-3.25Q112.09,132.59,113.6,134.18Z"/><path class="cls-3" d="M108.69,128.49c-.43-.56-.86-1.12-1.27-1.7C107.83,127.37,108.26,127.93,108.69,128.49Z"/><path class="cls-4" d="M229.44,110.57C229.27,110.4,209,90.4,164,90.4c-1.18,0-2.46,0-3.79.06h0l-1.67.06h0l-1.75.09h0c-4.14.23-8.77.67-13.63,1.39l-.28,0-1.45.23-.74.12-1.28.22-.94.17-1.19.23-1,.2-1.14.24-1.11.23-1.1.25-1.15.27-1.08.27-1.17.3-1.06.28-1.19.33-1,.3-1.19.37-1,.32-1.21.39-1,.34-1.19.43-1,.36-1.18.46-1,.39-1.17.49-1,.41-1.15.52-.93.44-1.13.56-.91.46c-.37.19-.74.4-1.1.6l-.89.48c-.36.21-.72.42-1.07.64s-.57.33-.85.51-.71.45-1.06.68l-.81.53c-.35.24-.7.48-1,.73l-.76.54-1,.81-.67.53c-.38.31-.74.63-1.11.94l-.54.47c-.54.49-1.06,1-1.57,1.49.42,1.08.86,2.14,1.33,3.2.09.22.19.43.29.65.46,1,1,2.06,1.46,3.07h0c.08.15.15.31.24.46h0c.35.68.71,1.34,1.08,2h0c.61,1.09,1.26,2.16,1.93,3.21l.27.43c.6.93,1.21,1.84,1.85,2.73h0c.67.94,1.36,1.85,2.07,2.75h0c.44.56.88,1.11,1.34,1.66h0l.16.18h0q1.43,1.66,2.94,3.25h0l.48.51h0l.72.71c.46.46.93.92,1.41,1.37h0l.81.74c1.23,1.11,2.49,2.18,3.8,3.21h0l1,.8h0l.15.11c1,.71,1.92,1.39,2.9,2.06l.69.47h0c.59.39,1.19.76,1.79,1.13l.74.46h0c.74.45,1.5.88,2.26,1.3h0l1.15.61h0c1.5.79,3,1.52,4.58,2.2h0l1.14.49h0c.74.31,1.49.61,2.25.89l.6.23h0c1.92.7,3.89,1.31,5.89,1.85h0l1.09.28h0q1.1.27,2.22.51h0l.45.1c1.15.24,2.32.46,3.49.64h0l.53.07c.89.13,1.77.25,2.67.34h0l1,.11h0c.89.08,1.79.14,2.69.19l.6,0h0c1.08.05,2.16.08,3.26.08s2.18,0,3.26-.08h0l1-.06h0c.77,0,1.54-.1,2.3-.17h0l1-.1q3.21-.35,6.32-1h0l.86-.19h0l2.22-.51h0l1.08-.28h0c.89-.24,1.77-.5,2.65-.77l.39-.12h0q1.44-.45,2.85-1h0l.7-.27h0c1.08-.41,2.15-.84,3.2-1.3l.09,0h0c.56-.24,1.12-.5,1.67-.76h0c.39-.18.78-.36,1.17-.56h0q2.64-1.29,5.13-2.79h0l1.11-.69,1.41-.9h0l.45-.31c.83-.55,1.65-1.13,2.45-1.71l.84-.62h0A70.24,70.24,0,0,0,229.44,110.57Z"/><rect class="cls-5" x="117.29" y="77.24" width="87.25" height="4.25" rx="2.12" ry="2.12"/><rect class="cls-5" x="117.29" y="65.74" width="87.25" height="4.25" rx="2.12" ry="2.12"/><rect class="cls-5" x="117.29" y="54.24" width="87.25" height="4.25" rx="2.12" ry="2.12"/><path class="cls-6" d="M166.65,26.91a12.21,12.21,0,0,0-4.77-1,12.49,12.49,0,0,0,0,25h0a12.49,12.49,0,0,0,4.8-24Z"/><path class="cls-7" d="M161.9,5.65h0A29.38,29.38,0,0,0,140.47,15a33.77,33.77,0,0,0-.05,45.81l21.4,22.76,22.72-24.06h-.1a33.8,33.8,0,0,0-1.13-44.46A29.36,29.36,0,0,0,161.9,5.65Zm12.78,45.64a18.14,18.14,0,0,1-25.66,0,18.13,18.13,0,0,1,0-25.65,18.15,18.15,0,0,1,31,12.86A18.27,18.27,0,0,1,174.68,51.29Z"/><path class="cls-8" d="M161.91,0a35,35,0,0,0-25.54,11.14,39.56,39.56,0,0,0-.06,53.6l18.77,19.93,5.21,6.94h2.83l5.52-7,18.74-19.83a39.55,39.55,0,0,0,.06-53.59A35,35,0,0,0,161.91,0Zm22.53,59.53h.1L161.82,83.59l-21.4-22.76A33.77,33.77,0,0,1,140.47,15,29.38,29.38,0,0,1,161.9,5.65h0a29.36,29.36,0,0,1,21.41,9.42,33.8,33.8,0,0,1,1.13,44.46Z"/><path class="cls-8" d="M161.88,20.31a18,18,0,0,0-12.83,5.3,18.13,18.13,0,0,0,0,25.65,18.14,18.14,0,0,0,25.66,0A18.27,18.27,0,0,0,180,38.47a18.16,18.16,0,0,0-18.13-18.16Zm0,30.62h0a12.49,12.49,0,0,1,0-25,12.21,12.21,0,0,1,4.77,1,12.49,12.49,0,0,1-4.8,24Z"/><polyline class="cls-4" points="162.04 88.99 173.04 104.99 177.93 154.3"/><polyline class="cls-3" points="162.04 88.99 151.04 104.99 146.16 154.3"/><line class="cls-4" x1="162.29" y1="98.99" x2="162.29" y2="89.24"/><line class="cls-4" x1="162.29" y1="114.99" x2="162.29" y2="105.74"/><line class="cls-4" x1="162.29" y1="136.74" x2="162.29" y2="125.49"/><line class="cls-4" x1="162.29" y1="156.24" x2="162.29" y2="144.99"/></svg>