<?xml version="1.0" encoding="utf-8"?>
<!-- Generator: Adobe Illustrator 22.0.1, SVG Export Plug-In . SVG Version: 6.00 Build 0)  -->
<svg version="1.1" id="Layer_1" xmlns="http://www.w3.org/2000/svg" xmlns:xlink="http://www.w3.org/1999/xlink" x="0px" y="0px"
	 viewBox="0 0 12 12" style="enable-background:new 0 0 12 12;" xml:space="preserve">
<style type="text/css">
	.st0{clip-path:url(#SVGID_2_);}
</style>
<g>
	<defs>
		<path id="SVGID_1_" d="M6,0C2.7,0,0,2.7,0,6c0,2.5,1.6,4.7,3.8,5.6c-0.1-0.5-0.1-1.2,0-1.7c0.1-0.5,0.7-3,0.7-3S4.4,6.5,4.4,6
			c0-0.8,0.5-1.5,1.1-1.5c0.5,0,0.8,0.4,0.8,0.8c0,0.5-0.3,1.3-0.5,2C5.6,8,6,8.5,6.6,8.5c1.1,0,1.9-1.1,1.9-2.7
			c0-1.4-1-2.4-2.5-2.4c-1.7,0-2.7,1.3-2.7,2.6c0,0.5,0.2,1.1,0.4,1.4c0,0.1,0.1,0.1,0,0.2L3.6,8.1c0,0.1-0.1,0.1-0.2,0.1
			C2.6,7.8,2.2,6.7,2.2,5.9c0-1.9,1.4-3.6,4-3.6c2.1,0,3.7,1.5,3.7,3.5c0,2.1-1.3,3.7-3.1,3.7c-0.6,0-1.2-0.3-1.4-0.7L5,10.2
			c-0.1,0.5-0.5,1.2-0.7,1.6C4.8,11.9,5.4,12,6,12c3.3,0,6-2.7,6-6C12,2.7,9.3,0,6,0z"/>
	</defs>
	<clipPath id="SVGID_2_">
		<use xlink:href="#SVGID_1_"  style="overflow:visible;"/>
	</clipPath>
	<rect x="-5" y="-5" class="st0" width="25.2" height="22"/>
</g>
</svg>
