<svg width="100" height="100" xmlns="http://www.w3.org/2000/svg"><g fill="#FFF" fill-rule="evenodd"><path d="M75.938 48.625l-36.668-25a1.669 1.669 0 0 0-1.719-.098A1.67 1.67 0 0 0 36.668 25v50c0 .617.34 1.184.887 1.473a1.662 1.662 0 0 0 1.715-.094l36.668-25c.457-.313.73-.828.73-1.379a1.66 1.66 0 0 0-.73-1.375zM40 71.844V28.156L72.043 50 40 71.844z"/><path d="M50 0C22.43 0 0 22.43 0 50s22.43 50 50 50 50-22.43 50-50S77.57 0 50 0zm0 96.668C24.27 96.668 3.332 75.73 3.332 50S24.27 3.332 50 3.332 96.668 24.266 96.668 50c0 25.73-20.938 46.668-46.668 46.668z"/></g></svg>